<?xml version="1.0" encoding="UTF-8"?>
<!DOCTYPE svg PUBLIC "-//W3C//DTD SVG 1.1//EN" "http://www.w3.org/Graphics/SVG/1.1/DTD/svg11.dtd">
<svg xmlns="http://www.w3.org/2000/svg" xmlns:xlink="http://www.w3.org/1999/xlink" version="1.1" width="78px" height="86px" viewBox="-0.5 -0.5 78 86"><defs/><g><rect x="3" y="21.87" width="18.42" height="59.13" fill="#000000" stroke="#ffffff" stroke-width="2" pointer-events="all"/><rect x="6.68" y="25.35" width="3.68" height="3.48" fill="#ffffff" stroke="none" pointer-events="all"/><rect x="14.05" y="25.35" width="3.68" height="3.48" fill="#ffffff" stroke="none" pointer-events="all"/><rect x="6.68" y="32.3" width="3.68" height="3.48" fill="#ffffff" stroke="none" pointer-events="all"/><rect x="14.05" y="32.3" width="3.68" height="3.48" fill="#ffffff" stroke="none" pointer-events="all"/><rect x="6.68" y="39.26" width="3.68" height="3.48" fill="#ffffff" stroke="none" pointer-events="all"/><rect x="14.05" y="39.26" width="3.68" height="3.48" fill="#ffffff" stroke="none" pointer-events="all"/><rect x="6.68" y="46.22" width="3.68" height="3.48" fill="#ffffff" stroke="none" pointer-events="all"/><rect x="14.05" y="46.22" width="3.68" height="3.48" fill="#ffffff" stroke="none" pointer-events="all"/><rect x="6.68" y="53.17" width="3.68" height="3.48" fill="#ffffff" stroke="none" pointer-events="all"/><rect x="14.05" y="53.17" width="3.68" height="3.48" fill="#ffffff" stroke="none" pointer-events="all"/><rect x="6.68" y="60.13" width="3.68" height="3.48" fill="#ffffff" stroke="none" pointer-events="all"/><rect x="14.05" y="60.13" width="3.68" height="3.48" fill="#ffffff" stroke="none" pointer-events="all"/><rect x="6.68" y="67.09" width="3.68" height="3.48" fill="#ffffff" stroke="none" pointer-events="all"/><rect x="14.05" y="67.09" width="3.68" height="3.48" fill="#ffffff" stroke="none" pointer-events="all"/><rect x="54.58" y="35.78" width="18.42" height="45.22" fill="#000000" stroke="#ffffff" stroke-width="2" pointer-events="all"/><rect x="58.26" y="39.26" width="3.68" height="3.48" fill="#ffffff" stroke="none" pointer-events="all"/><rect x="65.63" y="39.26" width="3.68" height="3.48" fill="#ffffff" stroke="none" pointer-events="all"/><rect x="58.26" y="46.22" width="3.68" height="3.48" fill="#ffffff" stroke="none" pointer-events="all"/><rect x="65.63" y="46.22" width="3.68" height="3.48" fill="#ffffff" stroke="none" pointer-events="all"/><rect x="58.26" y="53.17" width="3.68" height="3.48" fill="#ffffff" stroke="none" pointer-events="all"/><rect x="65.63" y="53.17" width="3.68" height="3.48" fill="#ffffff" stroke="none" pointer-events="all"/><rect x="58.26" y="60.13" width="3.68" height="3.48" fill="#ffffff" stroke="none" pointer-events="all"/><rect x="65.63" y="60.13" width="3.68" height="3.48" fill="#ffffff" stroke="none" pointer-events="all"/><rect x="58.26" y="67.09" width="3.68" height="3.48" fill="#ffffff" stroke="none" pointer-events="all"/><rect x="65.63" y="67.09" width="3.68" height="3.48" fill="#ffffff" stroke="none" pointer-events="all"/><rect x="21.42" y="1" width="33.16" height="80" fill="#000000" stroke="#ffffff" stroke-width="2" pointer-events="all"/><rect x="25.11" y="4.48" width="3.68" height="3.48" fill="#ffffff" stroke="none" pointer-events="all"/><rect x="32.47" y="4.48" width="3.68" height="3.48" fill="#ffffff" stroke="none" pointer-events="all"/><rect x="47.21" y="4.48" width="3.68" height="3.48" fill="#ffffff" stroke="none" pointer-events="all"/><rect x="39.84" y="4.48" width="3.68" height="3.48" fill="#ffffff" stroke="none" pointer-events="all"/><rect x="25.11" y="11.43" width="3.68" height="3.48" fill="#ffffff" stroke="none" pointer-events="all"/><rect x="32.47" y="11.43" width="3.68" height="3.48" fill="#ffffff" stroke="none" pointer-events="all"/><rect x="47.21" y="11.43" width="3.68" height="3.48" fill="#ffffff" stroke="none" pointer-events="all"/><rect x="39.84" y="11.43" width="3.68" height="3.48" fill="#ffffff" stroke="none" pointer-events="all"/><rect x="25.11" y="18.39" width="3.68" height="3.48" fill="#ffffff" stroke="none" pointer-events="all"/><rect x="32.47" y="18.39" width="3.68" height="3.48" fill="#ffffff" stroke="none" pointer-events="all"/><rect x="47.21" y="18.39" width="3.68" height="3.48" fill="#ffffff" stroke="none" pointer-events="all"/><rect x="39.84" y="18.39" width="3.68" height="3.48" fill="#ffffff" stroke="none" pointer-events="all"/><rect x="25.11" y="25.35" width="3.68" height="3.48" fill="#ffffff" stroke="none" pointer-events="all"/><rect x="32.47" y="25.35" width="3.68" height="3.48" fill="#ffffff" stroke="none" pointer-events="all"/><rect x="47.21" y="25.35" width="3.68" height="3.48" fill="#ffffff" stroke="none" pointer-events="all"/><rect x="39.84" y="25.35" width="3.68" height="3.48" fill="#ffffff" stroke="none" pointer-events="all"/><rect x="25.11" y="32.3" width="3.68" height="3.48" fill="#ffffff" stroke="none" pointer-events="all"/><rect x="32.47" y="32.3" width="3.68" height="3.48" fill="#ffffff" stroke="none" pointer-events="all"/><rect x="47.21" y="32.3" width="3.68" height="3.48" fill="#ffffff" stroke="none" pointer-events="all"/><rect x="39.84" y="32.3" width="3.68" height="3.48" fill="#ffffff" stroke="none" pointer-events="all"/><rect x="25.11" y="39.26" width="3.68" height="3.48" fill="#ffffff" stroke="none" pointer-events="all"/><rect x="32.47" y="39.26" width="3.68" height="3.48" fill="#ffffff" stroke="none" pointer-events="all"/><rect x="47.21" y="39.26" width="3.68" height="3.48" fill="#ffffff" stroke="none" pointer-events="all"/><rect x="39.84" y="39.26" width="3.68" height="3.48" fill="#ffffff" stroke="none" pointer-events="all"/><rect x="25.11" y="46.22" width="3.68" height="3.48" fill="#ffffff" stroke="none" pointer-events="all"/><rect x="32.47" y="46.22" width="3.68" height="3.48" fill="#ffffff" stroke="none" pointer-events="all"/><rect x="47.21" y="46.22" width="3.68" height="3.48" fill="#ffffff" stroke="none" pointer-events="all"/><rect x="39.84" y="46.22" width="3.68" height="3.48" fill="#ffffff" stroke="none" pointer-events="all"/><rect x="25.11" y="53.17" width="3.68" height="3.48" fill="#ffffff" stroke="none" pointer-events="all"/><rect x="32.47" y="53.17" width="3.68" height="3.48" fill="#ffffff" stroke="none" pointer-events="all"/><rect x="47.21" y="53.17" width="3.68" height="3.48" fill="#ffffff" stroke="none" pointer-events="all"/><rect x="39.84" y="53.17" width="3.68" height="3.48" fill="#ffffff" stroke="none" pointer-events="all"/><rect x="25.11" y="60.13" width="3.68" height="3.48" fill="#ffffff" stroke="none" pointer-events="all"/><rect x="32.47" y="60.13" width="3.68" height="3.48" fill="#ffffff" stroke="none" pointer-events="all"/><rect x="47.21" y="60.13" width="3.68" height="3.48" fill="#ffffff" stroke="none" pointer-events="all"/><rect x="39.84" y="60.13" width="3.68" height="3.48" fill="#ffffff" stroke="none" pointer-events="all"/><rect x="25.11" y="67.09" width="3.68" height="3.48" fill="#ffffff" stroke="none" pointer-events="all"/><rect x="32.47" y="67.09" width="3.68" height="3.48" fill="#ffffff" stroke="none" pointer-events="all"/><rect x="47.21" y="67.09" width="3.68" height="3.48" fill="#ffffff" stroke="none" pointer-events="all"/><rect x="39.84" y="67.09" width="3.68" height="3.48" fill="#ffffff" stroke="none" pointer-events="all"/><path d="M 3 81 L 73 81 L 3 81" fill="none" stroke="#ffffff" stroke-width="7" stroke-miterlimit="10" pointer-events="stroke"/></g></svg>