<?xml version="1.0" encoding="UTF-8"?>
<!DOCTYPE svg PUBLIC "-//W3C//DTD SVG 1.1//EN" "http://www.w3.org/Graphics/SVG/1.1/DTD/svg11.dtd">
<svg xmlns="http://www.w3.org/2000/svg" xmlns:xlink="http://www.w3.org/1999/xlink" version="1.1" width="34px" height="84px" viewBox="-0.5 -0.5 34 84"><defs/><g><rect x="12.12" y="38.08" width="15.17" height="40.5" fill="#000000" stroke="none" pointer-events="none"/><path d="M 17.18 65.03 L 24.1 65.03 Q 20.25 77.57 24.1 90.12 L 17.18 90.12 Q 13.32 77.57 17.18 65.03 Z" fill="#000000" stroke="none" transform="rotate(90,19.68,77.57)" pointer-events="none"/><path d="M 16.99 65.75 L 23.14 65.75 Q 21.58 78.3 23.14 90.84 L 16.99 90.84 Q 15.43 78.3 16.99 65.75 Z" fill="#000000" stroke="none" transform="rotate(90,19.68,78.3)" pointer-events="none"/><ellipse cx="19.64" cy="11.21" rx="9.214186123140752" ry="9.214186123140752" fill="#000000" stroke="none" pointer-events="none"/><path d="M 16.41 34.96 L 20.21 33.02 L 27.29 33.02 L 27.29 40.77 L 6.05 40.77 L 6.05 36.89 L 9.08 36.68 L 12.87 36.03 Z" fill="#000000" stroke="none" pointer-events="none"/></g></svg>