ply
format ascii 1.0
comment Created by Blender 2.83.5 - www.blender.org, source file: 'agent3d-uv-map.blend'
element vertex 414
property float x
property float y
property float z
property float nx
property float ny
property float nz
property float s
property float t
property uchar red
property uchar green
property uchar blue
property uchar alpha
element face 542
property list uchar uint vertex_indices
end_header
0.122057 0.017676 0.995856 -0.026307 0.339396 -0.940245 0.281250 0.453125 255 0 0 255
0.182569 -0.015726 0.955237 0.123173 -0.968566 -0.216010 0.218750 0.390625 255 0 0 255
0.131235 -0.053775 1.062942 0.567217 -0.805933 0.169439 0.218750 0.468750 255 0 0 255
0.047433 0.067490 1.000910 0.120670 0.958007 -0.259987 0.453125 0.843750 255 255 255 255
0.000000 0.042779 1.171222 0.014679 0.915677 0.401563 0.500000 0.765625 255 255 255 255
0.119045 0.090852 1.061816 0.151769 0.982940 0.103610 0.406250 0.781250 255 0 0 255
0.125149 0.014618 -0.003485 -0.715445 0.291391 -0.634968 0.093750 0.062500 0 255 255 255
0.150630 0.045109 -0.003485 0.025697 0.836756 -0.546922 0.109375 0.046875 0 255 255 255
0.173618 0.013684 -0.003485 0.662435 0.344005 -0.665426 0.093750 0.031250 0 255 255 255
0.042960 0.044320 0.939979 0.377789 0.896786 -0.230262 0.328125 0.617188 255 255 255 255
0.122057 0.017676 0.995856 -0.026307 0.339396 -0.940245 0.375000 0.640625 255 0 0 255
0.112717 -0.035441 0.939979 0.943632 -0.188177 -0.272256 0.406250 0.617188 128 128 128 255
0.044249 -0.038441 1.152624 0.546831 -0.718070 0.430464 0.468750 0.726562 255 255 255 255
0.047433 -0.090661 1.034887 0.246254 -0.957091 0.152654 0.460938 0.656250 0 255 0 255
0.131235 -0.053775 1.062942 0.567217 -0.805933 0.169439 0.406250 0.656250 255 0 0 255
0.044249 0.031463 1.166304 0.483840 0.492233 0.723563 0.468750 0.750000 255 255 255 255
0.167624 0.016239 1.119553 0.741325 0.014801 0.670949 0.406250 0.734375 255 0 0 255
0.146270 0.033035 0.094270 0.018830 0.998047 -0.059145 0.359375 0.171875 255 0 255 255
0.098744 0.002503 0.216919 -0.974639 -0.073244 -0.211341 0.312500 0.257812 255 0 255 255
0.136769 0.048796 0.221038 0.046419 0.985504 -0.163121 0.359375 0.257812 255 0 255 255
0.000000 0.067490 0.662050 0.000000 0.803217 -0.595630 0.312500 0.484375 255 255 255 255
0.065206 0.067491 0.673017 0.268838 0.957762 -0.101901 0.359375 0.484375 255 255 255 255
0.000000 -0.004865 0.639613 0.000000 -0.018281 -0.999817 0.312500 0.468750 128 128 128 255
0.000000 -0.004865 0.639613 0.000000 -0.018281 -0.999817 0.500000 0.468750 128 128 128 255
0.065206 -0.067490 0.673016 0.235450 -0.963713 -0.125736 0.453125 0.484375 128 128 128 255
0.000000 -0.067490 0.662050 0.000000 -0.761223 -0.648457 0.500000 0.484375 128 128 128 255
0.122057 0.017676 0.995856 -0.026307 0.339396 -0.940245 0.406250 0.828125 255 0 0 255
-0.307031 -0.015369 0.717975 -0.970672 0.020569 0.239418 0.156250 0.187500 255 0 0 255
-0.287505 0.008425 0.720144 -0.136418 0.987030 -0.084506 0.093750 0.203125 255 0 0 255
-0.287354 0.011782 0.710464 0.067629 0.966460 0.247719 0.093750 0.187500 255 0 0 255
0.268226 -0.020324 0.714089 -0.998749 -0.049409 0.007080 0.031250 0.203125 255 0 0 255
0.287354 0.011782 0.710464 -0.067629 0.966460 0.247719 0.093750 0.187500 255 0 0 255
0.264841 -0.021318 0.705563 -0.947264 0.115726 0.298715 0.031250 0.187500 255 0 0 255
0.261609 -0.025628 0.656450 -0.630085 0.625202 -0.460463 0.367188 0.125000 255 0 0 255
0.288605 0.026331 0.642474 -0.178259 0.963561 -0.199316 0.375000 0.117188 255 0 0 255
0.285106 -0.068248 0.647482 -0.004181 -0.956298 -0.292276 0.343750 0.117188 255 0 0 255
0.281133 0.005328 0.585594 -0.519150 0.657735 -0.545732 0.375000 0.101562 255 0 0 255
0.300314 -0.019242 0.581038 0.474227 -0.026337 -0.879971 0.359375 0.093750 255 0 0 255
0.280231 -0.049196 0.589707 -0.508133 -0.701285 -0.499985 0.343750 0.101562 255 0 0 255
0.267361 -0.039521 0.655579 -0.044130 -0.308908 -0.950041 0.359375 0.125000 255 0 0 255
0.284518 -0.048470 0.713074 0.034577 -0.890469 0.453658 0.218750 0.187500 255 0 0 255
0.253922 -0.052045 0.661480 -0.543840 -0.835475 0.078494 0.250000 0.125000 255 0 0 255
0.285106 -0.068248 0.647482 -0.004181 -0.956298 -0.292276 0.218750 0.125000 255 0 0 255
0.261609 -0.025628 0.656450 -0.630085 0.625202 -0.460463 0.062500 0.125000 255 0 0 255
0.246212 -0.041522 0.659625 -0.970916 0.054170 0.233131 0.031250 0.125000 255 0 0 255
-0.188687 0.094044 0.951965 -0.009247 0.998260 -0.057924 0.093750 0.390625 255 0 0 255
-0.122057 0.017676 0.995856 0.026307 0.339396 -0.940245 0.031250 0.453125 255 0 0 255
-0.150335 0.033740 0.932279 0.872341 0.010193 -0.488754 0.031250 0.390625 255 0 0 255
0.044783 0.006071 1.275620 0.752159 0.600085 -0.272195 0.031250 0.640625 0 0 0 255
0.056378 -0.042944 1.256220 0.953948 -0.020600 -0.299173 0.078125 0.640625 255 255 0 255
0.036560 -0.007359 1.240968 0.820856 0.487442 -0.297555 0.031250 0.593750 255 255 0 255
0.253922 -0.052045 0.661480 -0.543840 -0.835475 0.078494 0.343750 0.125000 255 0 0 255
0.218425 0.002184 0.882195 -0.007416 -0.990234 0.139073 0.218750 0.312500 255 0 0 255
0.238392 0.043301 0.915683 0.959349 0.016968 0.281625 0.156250 0.328125 255 0 0 255
0.208463 -0.002792 0.902488 0.121952 -0.975921 -0.180731 0.218750 0.328125 255 0 0 255
0.000000 0.037189 1.283966 0.000000 0.934843 -0.355022 0.156250 0.875000 0 0 0 255
-0.040036 0.019500 1.314656 -0.708579 0.699606 0.091586 0.125000 0.843750 255 255 0 255
0.000000 0.039395 1.314656 0.000000 0.984344 0.176122 0.156250 0.843750 255 255 0 255
0.124007 -0.123174 -0.006158 -0.668630 -0.388836 -0.633808 0.031250 0.062500 0 255 255 255
0.199244 -0.115480 -0.006158 0.718528 -0.286325 -0.633778 0.031250 0.031250 0 255 255 255
0.163560 -0.145660 -0.006158 0.076113 -0.783380 -0.616840 0.015625 0.046875 0 255 255 255
0.088956 0.057028 0.563688 0.061678 0.990081 -0.126194 0.359375 0.437500 0 0 255 255
0.132289 -0.007081 0.692466 0.987213 -0.010590 0.158971 0.406250 0.484375 128 128 128 255
0.150105 -0.016229 0.576939 0.991791 -0.075014 0.103397 0.406250 0.437500 0 0 255 255
0.208105 0.016866 0.813456 -0.926572 -0.021332 -0.375439 0.281250 0.265625 255 0 0 255
0.195687 0.035509 0.868900 -0.894772 0.058962 -0.442549 0.281250 0.312500 255 0 0 255
0.160176 -0.075701 0.038430 0.038179 -0.369915 0.928251 0.453125 0.109375 0 255 255 255
0.199110 -0.116557 0.016732 0.777825 -0.409864 0.476363 0.406250 0.062500 0 255 255 255
0.195861 -0.058327 0.034039 0.838862 -0.064943 0.540422 0.406250 0.109375 0 255 255 255
-0.040405 0.012052 1.203636 -0.846675 0.429273 0.314371 0.125000 0.937500 255 255 255 255
0.000000 0.042779 1.171222 0.014679 0.915677 0.401563 0.156250 0.968750 255 255 255 255
-0.044249 0.031463 1.166304 -0.509323 0.534501 0.674429 0.125000 0.968750 255 255 255 255
-0.035850 -0.081838 1.347864 -0.605731 -0.525986 0.596973 0.125000 0.750000 255 255 0 255
0.000000 -0.033240 1.375646 0.000000 -0.001282 0.999969 0.156250 0.781250 255 255 0 255
-0.045330 -0.033240 1.360515 -0.707663 -0.005158 0.706504 0.125000 0.781250 255 255 0 255
0.153353 -0.015846 0.408860 0.998474 -0.048280 -0.025849 0.406250 0.367188 255 0 255 255
0.111754 0.034291 0.416529 0.056887 0.995788 -0.071505 0.359375 0.375000 0 0 255 255
0.153784 -0.016477 0.422445 0.998108 -0.060976 -0.002899 0.406250 0.375000 0 0 255 255
0.195861 -0.058327 0.034039 0.838862 -0.064943 0.540422 0.359375 0.062500 0 255 255 255
0.173618 0.011489 0.044140 0.878109 0.466475 0.106143 0.312500 0.046875 0 255 255 255
0.173618 0.001611 0.070482 0.939268 0.100681 0.328043 0.312500 0.062500 0 255 255 255
0.152921 -0.015215 0.395275 0.989441 -0.093387 0.110630 0.406250 0.359375 255 0 255 255
0.113171 -0.056661 0.402157 0.033998 -0.996979 -0.069765 0.453125 0.367188 255 0 255 255
0.114588 -0.055720 0.387785 0.018464 -0.994018 -0.107608 0.453125 0.359375 255 0 255 255
0.150335 0.033740 0.932279 -0.872341 0.010193 -0.488754 0.281250 0.390625 255 0 0 255
0.284822 -0.043905 0.722200 0.051210 -0.940214 0.336619 0.218750 0.203125 255 0 0 255
0.307031 -0.015369 0.717975 0.970672 0.020569 0.239418 0.156250 0.187500 255 0 0 255
0.304102 -0.015157 0.728256 0.958922 -0.053682 0.278481 0.156250 0.203125 255 0 0 255
0.248302 -0.051454 0.635400 -0.218665 -0.834925 -0.505020 0.320312 0.093750 255 0 0 255
0.251241 -0.035016 0.633535 -0.214148 0.668569 -0.712119 0.312500 0.101562 255 0 0 255
0.260991 -0.042794 0.634211 0.685995 -0.172277 -0.706900 0.320312 0.101562 255 0 0 255
0.079251 0.002175 0.290523 -0.986114 -0.045747 -0.159581 0.312500 0.312500 255 0 255 255
0.130610 0.065849 0.305119 0.037049 0.996643 0.072573 0.359375 0.312500 255 0 255 255
0.292072 0.016686 0.613012 -0.213172 0.931578 -0.294443 0.375000 0.109375 255 0 0 255
-0.208105 0.016866 0.813456 0.926572 -0.021332 -0.375439 0.031250 0.265625 255 0 0 255
-0.268226 -0.020324 0.714089 0.998749 -0.049409 0.007080 0.031250 0.203125 255 0 0 255
-0.018034 -0.097485 1.187976 -0.584338 -0.400861 -0.705557 0.140625 0.562500 255 255 0 255
0.018034 -0.097485 1.187976 0.606830 -0.379131 -0.698538 0.171875 0.562500 255 255 0 255
0.000000 -0.106947 1.187976 0.000000 -0.750969 -0.660298 0.156250 0.570312 255 255 0 255
0.113171 0.034538 0.402157 0.031800 0.999420 0.011536 0.359375 0.367188 255 0 255 255
0.176946 0.000806 0.318287 0.990143 -0.046602 0.131993 0.406250 0.312500 255 0 255 255
0.114588 0.034785 0.387786 -0.025513 0.982116 0.186468 0.359375 0.359375 255 0 255 255
-0.284822 -0.043905 0.722200 -0.051210 -0.940214 0.336619 0.218750 0.203125 255 0 0 255
-0.304102 -0.015157 0.728256 -0.958922 -0.053682 0.278481 0.156250 0.203125 255 0 0 255
0.240863 -0.020424 0.829116 -0.069491 -0.965880 0.249367 0.218750 0.265625 255 0 0 255
-0.065206 -0.067490 0.673016 -0.235450 -0.963713 -0.125736 0.453125 0.484375 128 128 128 255
-0.103772 -0.031229 0.851580 -0.991821 -0.120426 0.041993 0.406250 0.562500 128 128 128 255
-0.132289 -0.007081 0.692466 -0.987213 -0.010590 0.158971 0.406250 0.484375 128 128 128 255
-0.213016 0.081110 0.899703 -0.075381 0.975280 -0.207648 0.093750 0.328125 255 0 0 255
-0.183087 0.035017 0.886508 0.813257 -0.030396 -0.581103 0.031250 0.328125 255 0 0 255
-0.208463 -0.002792 0.902488 -0.121952 -0.975921 -0.180731 0.218750 0.328125 255 0 0 255
-0.220921 0.044578 0.974923 -0.936338 0.075777 0.342753 0.156250 0.390625 255 0 0 255
-0.238392 0.043301 0.915683 -0.959349 0.016968 0.281625 0.156250 0.328125 255 0 0 255
0.088956 -0.075572 0.563688 0.022858 -0.999481 -0.022187 0.453125 0.437500 0 0 255 255
0.150629 -0.023845 0.066830 -0.040407 -0.716422 0.696463 0.453125 0.156250 0 255 255 255
0.169258 0.001611 0.097922 0.995483 -0.057985 0.074923 0.406250 0.171875 255 0 255 255
0.146270 -0.023845 0.094270 0.007019 -0.999237 -0.037751 0.453125 0.171875 255 0 255 255
-0.111754 0.034291 0.416529 -0.056887 0.995788 -0.071505 0.359375 0.375000 0 0 255 255
-0.150105 -0.016229 0.576939 -0.991791 -0.075014 0.103397 0.406250 0.437500 0 0 255 255
-0.088956 0.057028 0.563688 -0.061678 0.990081 -0.126194 0.359375 0.437500 0 0 255 255
0.000000 0.067490 1.000910 0.000000 0.993988 -0.109409 0.312500 0.656250 255 255 255 255
0.047433 0.067490 1.000910 0.120670 0.958007 -0.259987 0.328125 0.656250 255 255 255 255
0.120757 -0.062199 -0.003485 -0.723655 0.019654 -0.689840 0.062500 0.062500 0 255 255 255
0.195994 -0.054506 -0.003485 0.730125 0.154057 -0.665670 0.062500 0.031250 0 255 255 255
0.125149 0.012423 0.036439 -0.919584 0.384228 0.081973 0.218750 0.046875 0 255 255 255
0.120757 -0.062199 -0.003485 -0.723655 0.019654 -0.689840 0.171875 0.031250 0 255 255 255
0.120623 -0.066020 0.033049 -0.814814 -0.223701 0.534745 0.171875 0.062500 0 255 255 255
-0.042960 -0.090661 0.939979 -0.316324 -0.946776 -0.059023 0.453125 0.609375 0 255 0 255
-0.038487 -0.086448 0.851580 -0.322459 -0.944762 -0.058351 0.453125 0.562500 128 128 128 255
0.000000 0.048533 0.851580 0.000000 0.997101 0.075930 0.312500 0.562500 255 255 255 255
-0.065206 0.067491 0.673017 -0.268838 0.957762 -0.101871 0.359375 0.484375 255 255 255 255
-0.038487 0.048533 0.851580 -0.399335 0.911405 0.099155 0.328125 0.562500 255 255 255 255
0.130610 -0.042842 0.305119 0.067415 -0.990631 -0.118503 0.453125 0.312500 255 0 255 255
0.072098 -0.013729 0.379484 -0.982208 -0.074740 -0.172094 0.500000 0.359375 255 0 255 255
0.079251 0.002175 0.290523 -0.986114 -0.045747 -0.159581 0.500000 0.312500 255 0 255 255
-0.163560 -0.145660 -0.006158 -0.076113 -0.783380 -0.616840 0.453125 0.031250 0 255 255 255
-0.199110 -0.116557 0.016732 -0.777825 -0.409864 0.476363 0.406250 0.062500 0 255 255 255
-0.199244 -0.115480 -0.006158 -0.718528 -0.286325 -0.633778 0.406250 0.031250 0 255 255 255
-0.150630 0.033035 0.066830 -0.057070 0.978637 0.197424 0.359375 0.156250 0 255 255 255
-0.169258 0.001611 0.097922 -0.995483 -0.057985 0.074923 0.406250 0.171875 255 0 255 255
-0.146270 0.033035 0.094270 -0.018830 0.998047 -0.059145 0.359375 0.171875 255 0 255 255
0.289928 -0.061326 0.618543 -0.204932 -0.938475 -0.277902 0.218750 0.109375 255 0 0 255
0.321629 -0.016290 0.647379 0.996582 0.035188 0.074343 0.156250 0.125000 255 0 0 255
0.136769 -0.031574 0.221038 0.035035 -0.993683 -0.106357 0.453125 0.257812 255 0 255 255
0.098744 0.002503 0.216919 -0.974639 -0.073244 -0.211341 0.500000 0.257812 255 0 255 255
0.183087 0.035017 0.886508 -0.813257 -0.030396 -0.581103 0.281250 0.328125 255 0 0 255
0.035850 -0.081838 1.347864 0.605731 -0.525986 0.596973 0.125000 0.750000 255 255 0 255
0.000000 -0.110726 1.314656 0.000000 -0.971374 0.237495 0.156250 0.703125 255 255 0 255
0.040036 -0.097025 1.314656 0.693991 -0.694906 0.188238 0.125000 0.703125 255 255 0 255
-0.111754 -0.057602 0.416529 -0.044374 -0.994812 -0.091494 0.453125 0.375000 0 0 255 255
-0.153353 -0.015846 0.408860 -0.998474 -0.048280 -0.025849 0.406250 0.367188 255 0 255 255
-0.113171 -0.056661 0.402157 -0.033998 -0.996979 -0.069765 0.453125 0.367188 255 0 255 255
0.038488 0.048533 0.851580 0.399335 0.911405 0.099155 0.328125 0.562500 255 255 255 255
0.103772 -0.031229 0.851580 0.991821 -0.120426 0.041993 0.406250 0.562500 128 128 128 255
0.000000 -0.086448 0.851580 0.000000 -0.997101 -0.075930 0.500000 0.562500 128 128 128 255
-0.150335 0.033740 0.932279 0.872341 0.010193 -0.488754 0.281250 0.390625 255 0 0 255
-0.182569 -0.015726 0.955237 -0.123173 -0.968566 -0.216010 0.218750 0.390625 255 0 0 255
-0.218425 0.002184 0.882195 0.007416 -0.990234 0.139073 0.218750 0.312500 255 0 0 255
-0.183087 0.035017 0.886508 0.813257 -0.030396 -0.581103 0.281250 0.328125 255 0 0 255
0.035850 0.010021 1.351035 0.580004 0.582049 0.569903 0.125000 0.812500 255 255 0 255
0.045330 -0.033240 1.360515 0.707663 -0.005158 0.706504 0.125000 0.781250 255 255 0 255
0.042960 -0.090661 0.939979 0.316324 -0.946776 -0.059023 0.453125 0.609375 0 255 0 255
0.038487 -0.086448 0.851580 0.322459 -0.944762 -0.058351 0.453125 0.562500 128 128 128 255
-0.072098 -0.013729 0.379484 0.982208 -0.074740 -0.172094 0.312500 0.359375 255 0 255 255
-0.113171 0.034538 0.402157 -0.031800 0.999420 0.011536 0.359375 0.367188 255 0 255 255
-0.068633 -0.014349 0.394728 0.976043 -0.027985 -0.215644 0.312500 0.367188 255 0 255 255
-0.246115 0.062327 0.825022 -0.089755 0.958373 -0.270974 0.093750 0.265625 255 0 0 255
-0.245114 0.042810 0.892892 -0.922941 0.087558 0.374798 0.156250 0.312500 255 0 0 255
-0.222376 0.076134 0.879597 -0.078066 0.974578 -0.209937 0.093750 0.312500 255 0 0 255
0.251241 -0.035016 0.633535 -0.214148 0.668569 -0.712119 0.062500 0.109375 255 0 0 255
0.242971 -0.044178 0.634117 -0.817896 -0.022095 -0.574908 0.031250 0.109375 255 0 0 255
-0.130610 -0.042842 0.305119 -0.067415 -0.990631 -0.118503 0.453125 0.312500 255 0 255 255
-0.152921 -0.015215 0.395275 -0.989441 -0.093387 0.110630 0.406250 0.359375 255 0 255 255
-0.176946 0.000806 0.318287 -0.990143 -0.046602 0.131993 0.406250 0.312500 255 0 255 255
0.000000 0.044320 0.939979 0.000000 0.987548 -0.157201 0.312500 0.609375 255 255 255 255
0.065168 -0.014968 0.409972 -0.967254 -0.043397 -0.249947 0.500000 0.375000 0 0 255 255
0.068633 -0.014349 0.394728 -0.976043 -0.027985 -0.215644 0.500000 0.367188 255 0 255 255
0.292072 0.016686 0.613012 -0.213172 0.931578 -0.294443 0.093750 0.109375 255 0 0 255
0.320065 -0.018469 0.612193 0.957305 0.003388 -0.288949 0.156250 0.109375 255 0 0 255
-0.026561 -0.014052 0.542032 0.961272 -0.053224 -0.270333 0.500000 0.437500 0 0 255 255
-0.088956 -0.075572 0.563688 -0.022858 -0.999481 -0.022187 0.453125 0.437500 0 0 255 255
0.026561 -0.014052 0.542032 -0.961272 -0.053224 -0.270333 0.312500 0.437500 0 0 255 255
0.173618 0.001611 0.070482 0.939268 0.100681 0.328043 0.406250 0.156250 0 255 255 255
0.288605 0.026331 0.642474 -0.178259 0.963561 -0.199316 0.093750 0.125000 255 0 0 255
-0.065168 -0.014968 0.409972 0.967254 -0.043397 -0.249947 0.500000 0.375000 0 0 255 255
0.000000 -0.055732 1.167376 0.000000 -0.969939 -0.243294 0.156250 0.515625 255 255 255 255
-0.044249 -0.038441 1.152624 -0.546831 -0.718070 0.430464 0.125000 0.507812 255 255 255 255
0.000000 -0.049757 1.147706 0.000000 -0.995972 0.089511 0.156250 0.500000 255 255 255 255
-0.321629 -0.016290 0.647379 -0.996582 0.035188 0.074343 0.156250 0.125000 255 0 0 255
-0.284518 -0.048470 0.713074 -0.034577 -0.890469 0.453658 0.218750 0.187500 255 0 0 255
0.264841 -0.021318 0.705563 -0.947264 0.115726 0.298715 0.281250 0.187500 255 0 0 255
-0.044783 0.006071 1.275617 -0.752159 0.600085 -0.272225 0.125000 0.875000 0 0 0 255
0.000000 0.015266 1.257681 0.000000 0.957152 -0.289529 0.156250 0.906250 255 255 0 255
-0.036560 -0.007359 1.240968 -0.845485 0.504807 -0.174017 0.125000 0.906250 255 255 0 255
0.069000 -0.076748 0.979229 0.537919 -0.836634 -0.102969 0.433594 0.636719 0 255 0 255
0.268226 -0.020324 0.714089 -0.998749 -0.049409 0.007080 0.281250 0.203125 255 0 0 255
0.150630 0.033035 0.066830 0.057070 0.978637 0.197424 0.265625 0.062500 0 255 255 255
0.150630 0.042913 0.040488 0.020478 0.981719 0.189062 0.265625 0.046875 0 255 255 255
-0.208105 0.016866 0.813456 0.926572 -0.021332 -0.375439 0.281250 0.265625 255 0 0 255
-0.240863 -0.020424 0.829116 0.069491 -0.965880 0.249367 0.218750 0.265625 255 0 0 255
0.220921 0.044578 0.974923 0.936338 0.075777 0.342753 0.156250 0.390625 255 0 0 255
0.000000 0.019500 1.355751 0.000000 0.715598 0.698477 0.156250 0.812500 255 255 0 255
0.040036 0.019500 1.314656 0.708579 0.699606 0.091586 0.125000 0.843750 255 255 0 255
-0.248302 -0.051454 0.635400 0.218665 -0.834925 -0.505020 0.250000 0.093750 255 0 0 255
-0.246212 -0.041522 0.659625 0.970916 0.054170 0.233131 0.281250 0.125000 255 0 0 255
-0.253922 -0.052045 0.661480 0.543840 -0.835475 0.078494 0.250000 0.125000 255 0 0 255
-0.195687 0.035509 0.868900 0.894772 0.058962 -0.442549 0.031250 0.312500 255 0 0 255
-0.195994 -0.054506 -0.003485 -0.730125 0.154057 -0.665670 0.359375 0.031250 0 255 255 255
-0.173618 0.011489 0.044140 -0.878109 0.466475 0.106143 0.312500 0.046875 0 255 255 255
-0.173618 0.013684 -0.003485 -0.662435 0.344005 -0.665426 0.312500 0.031250 0 255 255 255
-0.123873 -0.124251 0.015742 0.719352 -0.516892 0.464034 0.500000 0.062500 0 255 255 255
-0.163426 -0.146737 0.014720 -0.074099 -0.878536 0.471847 0.453125 0.062500 0 255 255 255
-0.120789 0.002544 0.090222 0.985778 -0.035951 -0.164068 0.500000 0.171875 255 0 255 255
-0.150629 -0.023845 0.066830 0.040407 -0.716422 0.696463 0.453125 0.156250 0 255 255 255
-0.125149 0.002544 0.062781 0.984619 0.099033 0.143895 0.500000 0.156250 0 255 255 255
0.163426 -0.146737 0.014720 0.074099 -0.878536 0.471847 0.453125 0.062500 0 255 255 255
0.123873 -0.124251 0.015742 -0.719352 -0.516892 0.464034 0.500000 0.062500 0 255 255 255
0.125149 0.002544 0.062781 -0.984619 0.099033 0.143895 0.500000 0.156250 0 255 255 255
0.120623 -0.066020 0.033049 -0.814814 -0.223701 0.534745 0.500000 0.109375 0 255 255 255
0.171076 0.001521 0.224754 0.995117 -0.089328 -0.041658 0.406250 0.257812 255 0 255 255
0.033951 -0.102051 1.245879 0.725639 -0.663594 -0.181890 0.125000 0.640625 255 255 0 255
-0.028291 -0.042739 1.206748 -0.944029 -0.275979 -0.180517 0.125000 0.562500 255 255 0 255
-0.040405 0.012052 1.203636 -0.846675 0.429273 0.314371 0.093750 0.531250 255 255 255 255
-0.040374 -0.040590 1.179686 -0.815638 -0.561907 0.137791 0.125000 0.531250 255 255 255 255
0.000000 -0.113633 1.243826 0.000000 -0.997986 -0.063021 0.156250 0.640625 255 255 0 255
-0.065168 -0.014968 0.409972 0.967254 -0.043397 -0.249947 0.312500 0.375000 0 0 255 255
-0.171076 0.001521 0.224754 -0.995117 -0.089328 -0.041658 0.406250 0.257812 255 0 255 255
-0.130610 0.065849 0.305119 -0.037049 0.996643 0.072573 0.359375 0.312500 255 0 255 255
-0.136769 0.048796 0.221038 -0.046419 0.985504 -0.163121 0.359375 0.257812 255 0 255 255
-0.136769 -0.031574 0.221038 -0.035035 -0.993683 -0.106357 0.453125 0.257812 255 0 255 255
0.150630 0.045109 -0.003485 0.025697 0.836756 -0.546922 0.265625 0.031250 0 255 255 255
0.125149 0.014618 -0.003485 -0.715445 0.291391 -0.634968 0.218750 0.031250 0 255 255 255
-0.021480 -0.090661 0.978734 -0.096316 -0.994751 -0.033601 0.476562 0.632812 0 255 0 255
0.000000 -0.090661 0.939979 0.000000 -0.999084 -0.042726 0.500000 0.609375 0 255 0 255
0.000000 -0.096265 0.987433 0.000000 -0.998993 -0.044435 0.500000 0.632812 0 255 0 255
0.246115 0.062327 0.825022 0.089755 0.958373 -0.270974 0.093750 0.265625 255 0 0 255
0.195687 0.035509 0.868900 -0.894772 0.058962 -0.442549 0.031250 0.312500 255 0 0 255
0.222376 0.076134 0.879597 0.078066 0.974578 -0.209937 0.093750 0.312500 255 0 0 255
-0.160176 -0.075701 0.038430 -0.038179 -0.369915 0.928251 0.453125 0.109375 0 255 255 255
0.000000 -0.049757 1.147706 0.000000 -0.995972 0.089511 0.500000 0.718750 255 255 255 255
0.000000 -0.096265 1.034887 0.000000 -0.985229 0.171148 0.500000 0.656250 0 255 0 255
0.120789 0.002544 0.090222 -0.985778 -0.035951 -0.164068 0.500000 0.171875 255 0 255 255
-0.288605 0.026331 0.642474 0.178259 0.963561 -0.199316 0.093750 0.125000 255 0 0 255
0.253922 -0.052045 0.661480 -0.543840 -0.835475 0.078494 0.328125 0.117188 255 0 0 255
0.267361 -0.039521 0.655579 -0.044130 -0.308908 -0.950041 0.320312 0.117188 255 0 0 255
0.000000 0.029022 1.214452 0.063265 0.941771 0.330180 0.156250 0.937500 255 255 255 255
0.036560 -0.007359 1.240968 0.820856 0.487442 -0.297555 0.125000 0.906250 255 255 0 255
0.026583 0.012052 1.203636 0.813562 0.486068 0.319071 0.125000 0.937500 255 255 255 255
-0.028291 -0.042739 1.206748 -0.944029 -0.275979 -0.180517 0.078125 0.593750 255 255 0 255
-0.033951 -0.102051 1.245879 -0.719077 -0.674856 -0.165777 0.125000 0.640625 255 255 0 255
-0.056378 -0.042944 1.256220 -0.962554 -0.017365 -0.270455 0.078125 0.640625 255 255 0 255
-0.280231 -0.049196 0.589707 0.508133 -0.701285 -0.499985 0.218750 0.093750 255 0 0 255
-0.320065 -0.018469 0.612193 -0.957305 0.003388 -0.288949 0.156250 0.109375 255 0 0 255
-0.300314 -0.019242 0.581038 -0.474227 -0.026337 -0.879971 0.156250 0.093750 255 0 0 255
-0.069000 -0.076748 0.979229 -0.537950 -0.836634 -0.102969 0.433594 0.636719 0 255 0 255
-0.045196 -0.090661 0.975293 -0.265114 -0.964110 -0.013764 0.457031 0.632812 0 255 0 255
-0.047433 -0.090661 1.034887 -0.246254 -0.957091 0.152654 0.460938 0.656250 0 255 0 255
0.111754 -0.057602 0.416529 0.044374 -0.994812 -0.091494 0.453125 0.375000 0 0 255 255
-0.120757 -0.062199 -0.003485 0.723655 0.019654 -0.689840 0.171875 0.031250 0 255 255 255
-0.123873 -0.124251 0.015742 0.719352 -0.516892 0.464034 0.125000 0.062500 0 255 255 255
-0.124007 -0.123174 -0.006158 0.668630 -0.388836 -0.633808 0.125000 0.031250 0 255 255 255
0.000000 -0.061707 1.187046 0.035463 -0.547288 -0.836177 0.156250 0.531250 255 255 255 255
0.022677 -0.042739 1.206748 0.962035 -0.214942 -0.168126 0.125000 0.562500 255 255 0 255
0.018034 -0.097485 1.187976 0.606830 -0.379131 -0.698538 0.140625 0.562500 255 255 0 255
-0.059931 -0.033240 1.314656 -0.992950 0.026093 0.115482 0.078125 0.703125 255 255 0 255
-0.035850 0.010021 1.351035 -0.580004 0.582049 0.569903 0.031250 0.750000 255 255 0 255
-0.040036 0.019500 1.314656 -0.708579 0.699606 0.091586 0.031250 0.703125 255 255 0 255
0.044783 0.006071 1.275620 0.752159 0.600085 -0.272195 0.125000 0.875000 0 0 0 255
0.044249 0.031463 1.166304 0.483840 0.492233 0.723563 0.093750 0.500000 255 255 255 255
0.040374 -0.040590 1.179686 0.819086 -0.520615 0.240883 0.125000 0.531250 255 255 255 255
0.044249 -0.038441 1.152624 0.546831 -0.718070 0.430464 0.125000 0.507812 255 255 255 255
0.022677 -0.042739 1.206748 0.962035 -0.214942 -0.168126 0.078125 0.593750 255 255 0 255
0.018034 -0.097485 1.187976 0.606830 -0.379131 -0.698538 0.140625 0.593750 255 255 0 255
0.287505 0.008425 0.720144 0.136418 0.987030 -0.084506 0.093750 0.203125 255 0 0 255
0.208105 0.016866 0.813456 -0.926572 -0.021332 -0.375439 0.031250 0.265625 255 0 0 255
-0.072098 -0.013729 0.379484 0.982208 -0.074740 -0.172094 0.500000 0.359375 255 0 255 255
-0.114588 -0.055720 0.387785 -0.018464 -0.994018 -0.107608 0.453125 0.359375 255 0 255 255
0.044249 0.031463 1.166304 0.483840 0.492233 0.723563 0.125000 0.968750 255 255 255 255
-0.122057 0.017676 0.995856 0.026307 0.339396 -0.940245 0.281250 0.453125 255 0 0 255
-0.131235 -0.053775 1.062942 -0.567217 -0.805933 0.169439 0.218750 0.468750 255 0 0 255
-0.047433 0.067490 1.000910 -0.120670 0.958007 -0.259987 0.453125 0.843750 255 255 255 255
0.000000 0.067490 1.000910 0.000000 0.993988 -0.109409 0.500000 0.843750 255 255 255 255
-0.125149 0.014618 -0.003485 0.715445 0.291391 -0.634968 0.093750 0.062500 0 255 255 255
-0.173618 0.013684 -0.003485 -0.662435 0.344005 -0.665426 0.093750 0.031250 0 255 255 255
-0.150630 0.045109 -0.003485 -0.025697 0.836756 -0.546922 0.109375 0.046875 0 255 255 255
-0.044249 -0.038441 1.152624 -0.546831 -0.718070 0.430464 0.468750 0.726562 255 255 255 255
-0.131235 -0.053775 1.062942 -0.567217 -0.805933 0.169439 0.406250 0.656250 255 0 0 255
-0.119045 0.090852 1.061816 -0.151769 0.982940 0.103610 0.406250 0.781250 255 0 0 255
-0.167624 0.016239 1.119553 -0.741325 0.014801 0.670949 0.406250 0.734375 255 0 0 255
-0.044249 0.031463 1.166304 -0.509323 0.534501 0.674429 0.468750 0.750000 255 255 255 255
-0.098744 0.002503 0.216919 0.974639 -0.073244 -0.211341 0.312500 0.257812 255 0 255 255
-0.120789 0.002544 0.090222 0.985778 -0.035951 -0.164068 0.312500 0.171875 255 0 255 255
-0.112717 -0.035441 0.939979 -0.943632 -0.188177 -0.272256 0.406250 0.617188 128 128 128 255
-0.122057 0.017676 0.995856 0.026307 0.339396 -0.940245 0.375000 0.640625 255 0 0 255
-0.122057 0.017676 0.995856 0.026307 0.339396 -0.940245 0.406250 0.828125 255 0 0 255
-0.264841 -0.021318 0.705563 0.947264 0.115726 0.298715 0.031250 0.187500 255 0 0 255
-0.261609 -0.025628 0.656450 0.630085 0.625202 -0.460463 0.367188 0.125000 255 0 0 255
-0.285106 -0.068248 0.647482 0.004181 -0.956298 -0.292276 0.343750 0.117188 255 0 0 255
-0.288605 0.026331 0.642474 0.178259 0.963561 -0.199316 0.375000 0.117188 255 0 0 255
-0.281133 0.005328 0.585594 0.519150 0.657735 -0.545732 0.375000 0.101562 255 0 0 255
-0.280231 -0.049196 0.589707 0.508133 -0.701285 -0.499985 0.343750 0.101562 255 0 0 255
-0.300314 -0.019242 0.581038 -0.474227 -0.026337 -0.879971 0.359375 0.093750 255 0 0 255
-0.267361 -0.039521 0.655579 0.044130 -0.308908 -0.950041 0.359375 0.125000 255 0 0 255
-0.285106 -0.068248 0.647482 0.004181 -0.956298 -0.292276 0.218750 0.125000 255 0 0 255
-0.261609 -0.025628 0.656450 0.630085 0.625202 -0.460463 0.062500 0.125000 255 0 0 255
-0.246212 -0.041522 0.659625 0.970916 0.054170 0.233131 0.031250 0.125000 255 0 0 255
0.188687 0.094044 0.951965 0.009247 0.998260 -0.057924 0.093750 0.390625 255 0 0 255
0.122057 0.017676 0.995856 -0.026307 0.339396 -0.940245 0.031250 0.453125 255 0 0 255
0.119045 0.090852 1.061816 0.151769 0.982940 0.103610 0.093750 0.468750 255 0 0 255
-0.042960 0.044320 0.939979 -0.377789 0.896786 -0.230262 0.328125 0.617188 255 255 255 255
-0.253922 -0.052045 0.661480 0.543840 -0.835475 0.078494 0.343750 0.125000 255 0 0 255
-0.195861 -0.058327 0.034039 -0.838862 -0.064943 0.540422 0.406250 0.109375 0 255 255 255
-0.173618 0.001611 0.070482 -0.939268 0.100681 0.328043 0.406250 0.156250 0 255 255 255
-0.124007 -0.123174 -0.006158 0.668630 -0.388836 -0.633808 0.031250 0.062500 0 255 255 255
-0.163560 -0.145660 -0.006158 -0.076113 -0.783380 -0.616840 0.015625 0.046875 0 255 255 255
-0.199244 -0.115480 -0.006158 -0.718528 -0.286325 -0.633778 0.031250 0.031250 0 255 255 255
-0.044249 0.031463 1.166304 -0.509323 0.534501 0.674429 0.093750 0.500000 255 255 255 255
0.278872 0.025037 0.840682 0.928831 0.041932 0.368084 0.156250 0.265625 255 0 0 255
-0.195861 -0.058327 0.034039 -0.838862 -0.064943 0.540422 0.359375 0.062500 0 255 255 255
-0.173618 0.001611 0.070482 -0.939268 0.100681 0.328043 0.312500 0.062500 0 255 255 255
-0.268226 -0.020324 0.714089 0.998749 -0.049409 0.007080 0.281250 0.203125 255 0 0 255
-0.264841 -0.021318 0.705563 0.947264 0.115726 0.298715 0.281250 0.187500 255 0 0 255
-0.251241 -0.035016 0.633535 0.214148 0.668569 -0.712119 0.312500 0.101562 255 0 0 255
-0.248302 -0.051454 0.635400 0.218665 -0.834925 -0.505020 0.320312 0.093750 255 0 0 255
-0.260991 -0.042794 0.634211 -0.685995 -0.172277 -0.706900 0.320312 0.101562 255 0 0 255
0.183087 0.035017 0.886508 -0.813257 -0.030396 -0.581103 0.031250 0.328125 255 0 0 255
0.213016 0.081110 0.899703 0.075381 0.975280 -0.207648 0.093750 0.328125 255 0 0 255
-0.292072 0.016686 0.613012 0.213172 0.931578 -0.294443 0.375000 0.109375 255 0 0 255
-0.289928 -0.061326 0.618543 0.204932 -0.938475 -0.277902 0.343750 0.109375 255 0 0 255
-0.278872 0.025037 0.840682 -0.928831 0.041932 0.368084 0.156250 0.265625 255 0 0 255
0.167624 0.016239 1.119553 0.741325 0.014801 0.670949 0.156250 0.484375 255 0 0 255
-0.120623 -0.066020 0.033049 0.814814 -0.223701 0.534745 0.500000 0.109375 0 255 255 255
-0.114588 0.034785 0.387786 0.025513 0.982116 0.186468 0.359375 0.359375 255 0 255 255
0.150335 0.033740 0.932279 -0.872341 0.010193 -0.488754 0.031250 0.390625 255 0 0 255
-0.026561 -0.014052 0.542032 0.961272 -0.053224 -0.270333 0.312500 0.437500 0 0 255 255
-0.150630 0.045109 -0.003485 -0.025697 0.836756 -0.546922 0.265625 0.031250 0 255 255 255
-0.125149 0.012423 0.036439 0.919584 0.384228 0.081973 0.218750 0.046875 0 255 255 255
-0.125149 0.014618 -0.003485 0.715445 0.291391 -0.634968 0.218750 0.031250 0 255 255 255
-0.292072 0.016686 0.613012 0.213172 0.931578 -0.294443 0.093750 0.109375 255 0 0 255
-0.281133 0.005328 0.585594 0.519150 0.657735 -0.545732 0.093750 0.093750 255 0 0 255
0.163560 -0.145660 -0.006158 0.076113 -0.783380 -0.616840 0.453125 0.031250 0 255 255 255
0.150630 0.033035 0.066830 0.057070 0.978637 0.197424 0.359375 0.156250 0 255 255 255
-0.289928 -0.061326 0.618543 0.204932 -0.938475 -0.277902 0.218750 0.109375 255 0 0 255
-0.079251 0.002175 0.290523 0.986114 -0.045747 -0.159581 0.500000 0.312500 255 0 255 255
-0.146270 -0.023845 0.094270 -0.007019 -0.999237 -0.037751 0.453125 0.171875 255 0 255 255
-0.040036 -0.097025 1.314656 -0.693991 -0.694906 0.188238 0.125000 0.703125 255 255 0 255
-0.035850 0.010021 1.351035 -0.580004 0.582049 0.569903 0.125000 0.812500 255 255 0 255
-0.120757 -0.062199 -0.003485 0.723655 0.019654 -0.689840 0.062500 0.062500 0 255 255 255
0.072098 -0.013729 0.379484 -0.982208 -0.074740 -0.172094 0.312500 0.359375 255 0 255 255
0.245114 0.042810 0.892892 0.922941 0.087558 0.374798 0.156250 0.312500 255 0 0 255
-0.150630 0.042913 0.040488 -0.020478 0.981719 0.189062 0.265625 0.046875 0 255 255 255
0.026561 -0.014052 0.542032 -0.961272 -0.053224 -0.270333 0.500000 0.437500 0 0 255 255
-0.119045 0.090852 1.061816 -0.151769 0.982940 0.103610 0.093750 0.468750 255 0 0 255
-0.251241 -0.035016 0.633535 0.214148 0.668569 -0.712119 0.062500 0.109375 255 0 0 255
0.173618 0.013684 -0.003485 0.662435 0.344005 -0.665426 0.312500 0.031250 0 255 255 255
-0.045330 -0.033240 1.360515 -0.707663 -0.005158 0.706504 0.078125 0.750000 255 255 0 255
-0.150630 0.033035 0.066830 -0.057070 0.978637 0.197424 0.265625 0.062500 0 255 255 255
-0.125149 0.002544 0.062781 0.984619 0.099033 0.143895 0.218750 0.062500 0 255 255 255
0.000000 -0.106947 1.187976 0.000000 -0.750969 -0.660298 0.156250 0.593750 255 255 0 255
0.289928 -0.061326 0.618543 -0.204932 -0.938475 -0.277902 0.343750 0.109375 255 0 0 255
0.248302 -0.051454 0.635400 -0.218665 -0.834925 -0.505020 0.250000 0.093750 255 0 0 255
0.246212 -0.041522 0.659625 -0.970916 0.054170 0.233131 0.281250 0.125000 255 0 0 255
0.242971 -0.044178 0.634117 -0.817896 -0.022095 -0.574908 0.281250 0.093750 255 0 0 255
-0.079251 0.002175 0.290523 0.986114 -0.045747 -0.159581 0.312500 0.312500 255 0 255 255
0.195994 -0.054506 -0.003485 0.730125 0.154057 -0.665670 0.359375 0.031250 0 255 255 255
0.124007 -0.123174 -0.006158 -0.668630 -0.388836 -0.633808 0.500000 0.031250 0 255 255 255
0.261609 -0.025628 0.656450 -0.630085 0.625202 -0.460463 0.312500 0.117188 255 0 0 255
0.199244 -0.115480 -0.006158 0.718528 -0.286325 -0.633778 0.406250 0.031250 0 255 255 255
0.026583 0.012052 1.203636 0.813562 0.486068 0.319071 0.093750 0.531250 255 255 255 255
0.068633 -0.014349 0.394728 -0.976043 -0.027985 -0.215644 0.312500 0.367188 255 0 255 255
-0.068633 -0.014349 0.394728 0.976043 -0.027985 -0.215644 0.500000 0.367188 255 0 255 255
0.021480 -0.090661 0.978734 0.096316 -0.994751 -0.033601 0.476562 0.632812 0 255 0 255
0.045196 -0.090661 0.975293 0.265114 -0.964110 -0.013764 0.457031 0.632812 0 255 0 255
-0.261609 -0.025628 0.656450 0.630085 0.625202 -0.460463 0.312500 0.117188 255 0 0 255
-0.267361 -0.039521 0.655579 0.044130 -0.308908 -0.950041 0.320312 0.117188 255 0 0 255
-0.098744 0.002503 0.216919 0.974639 -0.073244 -0.211341 0.500000 0.257812 255 0 255 255
-0.253922 -0.052045 0.661480 0.543840 -0.835475 0.078494 0.328125 0.117188 255 0 0 255
-0.044783 0.006071 1.275617 -0.752159 0.600085 -0.272225 0.031250 0.640625 0 0 0 255
0.280231 -0.049196 0.589707 -0.508133 -0.701285 -0.499985 0.218750 0.093750 255 0 0 255
0.059931 -0.033240 1.314656 0.992950 0.026093 0.115482 0.078125 0.703125 255 255 0 255
-0.153784 -0.016477 0.422445 -0.998108 -0.060976 -0.002899 0.406250 0.375000 0 0 255 255
0.123873 -0.124251 0.015742 -0.719352 -0.516892 0.464034 0.125000 0.062500 0 255 255 255
0.124007 -0.123174 -0.006158 -0.668630 -0.388836 -0.633808 0.125000 0.031250 0 255 255 255
0.035850 0.010021 1.351035 0.580004 0.582049 0.569903 0.031250 0.750000 255 255 0 255
0.040036 0.019500 1.314656 0.708579 0.699606 0.091586 0.031250 0.703125 255 255 0 255
-0.018034 -0.097485 1.187976 -0.584338 -0.400861 -0.705557 0.140625 0.593750 255 255 0 255
-0.036560 -0.007359 1.240968 -0.845485 0.504807 -0.174017 0.031250 0.593750 255 255 0 255
0.300314 -0.019242 0.581038 0.474227 -0.026337 -0.879971 0.156250 0.093750 255 0 0 255
0.281133 0.005328 0.585594 -0.519150 0.657735 -0.545732 0.093750 0.093750 255 0 0 255
0.125149 0.002544 0.062781 -0.984619 0.099033 0.143895 0.218750 0.062500 0 255 255 255
-0.120623 -0.066020 0.033049 0.814814 -0.223701 0.534745 0.171875 0.062500 0 255 255 255
0.125149 0.002544 0.062781 -0.984619 0.099033 0.143895 0.312500 0.156250 0 255 255 255
-0.125149 0.002544 0.062781 0.984619 0.099033 0.143895 0.312500 0.156250 0 255 255 255
0.120789 0.002544 0.090222 -0.985778 -0.035951 -0.164068 0.312500 0.171875 255 0 255 255
0.000000 -0.090832 1.355751 0.000000 -0.670522 0.741874 0.156250 0.750000 255 255 0 255
0.242971 -0.044178 0.634117 -0.817896 -0.022095 -0.574908 0.312500 0.093750 255 0 0 255
-0.195687 0.035509 0.868900 0.894772 0.058962 -0.442549 0.281250 0.312500 255 0 0 255
0.065168 -0.014968 0.409972 -0.967254 -0.043397 -0.249947 0.312500 0.375000 0 0 255 255
-0.242971 -0.044178 0.634117 0.817896 -0.022095 -0.574908 0.281250 0.093750 255 0 0 255
-0.124007 -0.123174 -0.006158 0.668630 -0.388836 -0.633808 0.500000 0.031250 0 255 255 255
-0.036560 -0.007359 1.240968 -0.845485 0.504807 -0.174017 0.093750 0.562500 255 255 0 255
0.248302 -0.051454 0.635400 -0.218665 -0.834925 -0.505020 0.328125 0.101562 255 0 0 255
-0.047433 0.067490 1.000910 -0.120670 0.958007 -0.259987 0.328125 0.656250 255 255 255 255
-0.242971 -0.044178 0.634117 0.817896 -0.022095 -0.574908 0.312500 0.093750 255 0 0 255
-0.167624 0.016239 1.119553 -0.741325 0.014801 0.670949 0.156250 0.484375 255 0 0 255
-0.195994 -0.054506 -0.003485 -0.730125 0.154057 -0.665670 0.062500 0.031250 0 255 255 255
-0.242971 -0.044178 0.634117 0.817896 -0.022095 -0.574908 0.031250 0.109375 255 0 0 255
0.036560 -0.007359 1.240968 0.820856 0.487442 -0.297555 0.093750 0.562500 255 255 0 255
-0.248302 -0.051454 0.635400 0.218665 -0.834925 -0.505020 0.328125 0.101562 255 0 0 255
0.045330 -0.033240 1.360515 0.707663 -0.005158 0.706504 0.078125 0.750000 255 255 0 255
0.100000 -0.202546 1.200000 0.000000 -0.998706 0.050859 0.250000 0.500000 128 0 0 255
-0.100000 -0.197454 1.300000 0.000000 -0.998706 0.050859 0.187500 0.843750 128 0 0 255
-0.100000 -0.202546 1.200000 0.000000 -0.998706 0.050859 0.187500 0.500000 128 0 0 255
0.100000 -0.197454 1.300000 0.000000 -0.998706 0.050859 0.250000 0.843750 128 0 0 255
3 0 1 2
3 3 4 5
3 6 7 8
3 9 10 11
3 12 13 14
3 5 15 16
3 17 18 19
3 11 10 14
3 20 21 22
3 23 24 25
3 26 3 5
3 27 28 29
3 30 31 32
3 33 34 35
3 36 37 38
3 39 33 35
3 40 41 42
3 43 44 32
3 45 46 47
3 48 49 50
3 51 39 35
3 52 53 54
3 55 56 57
3 58 59 60
3 61 62 63
3 64 52 65
3 66 67 68
3 69 70 71
3 72 73 74
3 75 76 77
3 78 79 80
3 81 82 83
3 0 84 1
3 85 86 87
3 88 89 90
3 19 91 92
3 38 93 36
3 28 94 95
3 96 97 98
3 81 99 75
3 100 101 81
3 27 102 103
3 87 104 85
3 105 106 107
3 108 47 109
3 110 111 112
3 63 24 113
3 114 115 116
3 117 118 119
3 9 120 121
3 59 122 123
3 61 22 21
3 124 125 126
3 127 106 128
3 129 130 131
3 132 133 134
3 135 136 137
3 122 8 123
3 138 139 140
3 141 142 42
3 143 134 144
3 115 143 116
3 19 115 17
3 52 145 65
3 146 147 148
3 149 150 151
3 62 152 153
3 24 154 25
3 110 155 156
3 157 158 110
3 159 73 160
3 153 161 162
3 163 164 165
3 166 167 168
3 44 169 170
3 171 172 173
3 152 174 9
3 82 175 176
3 177 142 178
3 149 179 180
3 76 181 61
3 114 68 182
3 43 31 183
3 151 184 149
3 185 186 187
3 188 189 27
3 190 41 40
3 191 192 193
3 194 14 13
3 195 104 64
3 124 196 197
3 198 157 199
3 200 2 1
3 40 195 190
3 201 202 57
3 203 204 205
3 168 109 206
3 207 208 209
3 135 210 211
3 212 213 214
3 215 66 216
3 114 217 218
3 167 108 168
3 219 132 143
3 49 148 220
3 221 222 223
3 220 147 224
3 165 117 225
3 226 227 228
3 171 226 229
3 124 230 231
3 66 218 216
3 83 176 133
3 232 233 234
3 235 236 237
3 5 4 15
3 211 238 136
3 79 196 80
3 13 239 240
3 116 144 241
3 23 180 179
3 153 9 11
3 91 101 92
3 188 29 242
3 243 90 244
3 16 12 14
3 245 246 247
3 248 249 250
3 251 252 253
3 254 255 256
3 77 113 257
3 258 259 260
3 261 262 263
3 264 265 266
3 55 202 267
3 268 269 270
3 271 220 272
3 50 49 271
3 273 274 235
3 171 275 276
3 70 247 277
3 278 279 156
3 280 4 281
3 282 283 284
3 267 192 55
3 285 286 256
3 287 288 289
3 140 290 291
3 292 286 293
3 20 22 130
3 23 25 105
3 294 287 280
3 273 86 31
3 29 95 295
3 296 297 298
3 299 300 301
3 302 297 296
3 189 303 205
3 304 295 305
3 306 307 308
3 293 309 292
3 310 297 302
3 157 112 167
3 311 213 312
3 313 314 315
3 119 107 130
3 223 316 186
3 238 311 136
3 317 52 104
3 73 146 160
3 150 117 164
3 208 318 319
3 151 172 276
3 278 156 155
3 320 189 321
3 322 323 324
3 237 325 326
3 300 327 328
3 28 329 166
3 200 308 330
3 213 238 331
3 172 164 332
3 329 157 167
3 298 328 327
3 103 199 329
3 24 153 162
3 326 333 306
3 54 200 1
3 306 53 326
3 213 139 312
3 76 63 77
3 131 174 129
3 233 128 154
3 119 22 334
3 335 336 337
3 309 120 174
3 21 129 152
3 253 338 339
3 340 67 215
3 279 111 156
3 341 115 182
3 342 188 252
3 229 343 171
3 229 139 344
3 139 228 140
3 112 45 108
3 147 72 345
3 75 257 82
3 107 131 130
3 154 105 25
3 54 84 145
3 118 105 107
3 346 73 201
3 315 347 313
3 348 99 101
3 235 349 317
3 304 29 295
3 132 81 83
3 233 162 161
3 209 350 335
3 347 283 282
3 257 351 175
3 117 334 225
3 111 352 45
3 305 353 304
3 354 197 79
3 270 185 187
3 142 40 42
3 205 321 189
3 288 285 289
3 264 72 355
3 320 199 102
3 336 356 357
3 272 224 358
3 338 188 242
3 359 34 93
3 56 201 57
3 360 361 362
3 228 363 290
3 364 79 78
3 340 216 365
3 114 241 217
3 90 366 244
3 213 331 214
3 326 349 237
3 364 67 367
3 250 345 264
3 368 262 269
3 249 147 345
3 369 76 99
3 92 219 19
3 136 207 137
3 336 258 337
3 238 210 331
3 276 370 151
3 371 372 13
3 166 206 94
3 287 289 4
3 373 324 374
3 208 356 350
3 256 239 285
3 344 375 229
3 113 23 351
3 106 309 131
3 363 332 163
3 142 31 86
3 324 376 374
3 377 264 266
3 193 245 69
3 261 223 185
3 378 178 141
3 379 146 148
3 180 380 149
3 381 125 382
3 261 96 221
3 383 379 384
3 385 224 249
3 269 261 185
3 250 377 386
3 273 317 87
3 177 387 388
3 173 332 227
3 3 281 4
3 114 218 66
3 126 389 124
3 48 384 379
3 280 287 4
3 336 357 390
3 386 248 250
3 391 17 341
3 392 140 291
3 9 121 10
3 17 393 18
3 27 103 28
3 30 273 31
3 45 352 46
3 48 379 49
3 52 349 53
3 55 191 56
3 61 21 62
3 64 104 52
3 69 245 70
3 72 394 73
3 75 99 76
3 81 75 82
3 85 40 86
3 88 395 89
3 19 18 91
3 38 359 93
3 28 166 94
3 96 261 97
3 81 101 99
3 100 92 101
3 27 189 102
3 87 317 104
3 105 128 106
3 108 45 47
3 110 156 111
3 63 62 24
3 114 182 115
3 117 380 118
3 9 174 120
3 59 58 122
3 61 181 22
3 124 231 125
3 127 292 106
3 129 20 130
3 132 83 133
3 135 211 136
3 122 6 8
3 138 312 139
3 141 178 142
3 143 132 134
3 115 219 143
3 19 219 115
3 52 54 145
3 146 394 147
3 149 380 150
3 62 21 152
3 24 162 154
3 110 158 155
3 157 396 158
3 159 201 73
3 153 11 161
3 163 332 164
3 166 329 167
3 44 43 169
3 171 276 172
3 152 129 174
3 82 257 175
3 177 183 142
3 149 184 179
3 76 397 181
3 114 66 68
3 43 32 31
3 151 370 184
3 185 223 186
3 188 303 189
3 190 361 41
3 191 55 192
3 194 372 161
3 195 85 104
3 124 389 196
3 198 396 157
3 200 330 2
3 40 85 195
3 201 159 202
3 203 398 204
3 168 108 109
3 207 318 208
3 135 399 210
3 212 344 213
3 215 67 66
3 167 112 108
3 219 100 132
3 49 379 148
3 221 400 222
3 220 148 147
3 165 164 117
3 226 173 227
3 171 173 226
3 124 197 230
3 83 82 176
3 255 127 232
3 235 274 236
3 211 210 238
3 79 197 196
3 13 12 239
3 116 143 144
3 23 105 180
3 153 152 9
3 91 348 101
3 188 27 29
3 243 401 90
3 16 15 12
3 245 192 246
3 248 385 249
3 251 342 252
3 286 254 256
3 77 63 113
3 258 390 259
3 264 355 265
3 55 57 202
3 268 368 269
3 271 49 220
3 273 30 274
3 171 343 275
3 70 245 247
3 267 246 192
3 140 228 290
3 273 87 86
3 29 28 95
3 306 333 307
3 293 402 309
3 157 110 112
3 311 238 213
3 119 118 107
3 223 222 316
3 317 349 52
3 73 394 146
3 150 380 117
3 151 150 172
3 320 102 189
3 322 403 323
3 237 236 325
3 300 299 327
3 28 103 329
3 200 306 308
3 172 150 164
3 329 199 157
3 298 297 328
3 103 102 199
3 24 62 153
3 326 325 333
3 54 53 200
3 306 200 53
3 213 344 139
3 76 61 63
3 131 309 174
3 233 127 128
3 119 130 22
3 335 350 336
3 309 402 120
3 21 20 129
3 253 252 338
3 340 367 67
3 279 404 111
3 341 17 115
3 342 303 188
3 229 375 343
3 229 226 139
3 139 226 228
3 112 111 45
3 147 394 72
3 75 77 257
3 107 106 131
3 154 128 105
3 54 1 84
3 118 180 105
3 346 74 73
3 315 405 347
3 348 369 99
3 235 237 349
3 304 242 29
3 132 100 81
3 233 154 162
3 209 208 350
3 347 405 283
3 257 113 351
3 117 119 334
3 111 404 352
3 305 406 353
3 354 230 197
3 270 269 185
3 142 86 40
3 205 204 321
3 288 286 285
3 264 345 72
3 320 198 199
3 336 350 356
3 272 220 224
3 338 252 188
3 359 35 34
3 56 346 201
3 360 41 361
3 228 227 363
3 364 354 79
3 340 215 216
3 114 116 241
3 90 89 366
3 326 53 349
3 364 78 67
3 250 249 345
3 368 407 262
3 249 224 147
3 369 397 76
3 92 100 219
3 136 318 207
3 336 390 258
3 276 275 370
3 233 161 371
3 166 168 206
3 373 322 324
3 208 319 356
3 256 240 239
3 344 212 375
3 113 24 23
3 106 292 309
3 363 227 332
3 142 183 31
3 324 408 376
3 193 192 245
3 261 221 223
3 378 387 178
3 379 409 146
3 180 118 380
3 381 126 125
3 383 409 379
3 385 358 224
3 269 262 261
3 250 264 377
3 273 235 317
3 177 178 387
3 173 172 332
3 391 393 17
3 392 138 140
3 194 11 14
3 161 11 194
3 254 292 127
3 286 292 254
3 234 240 232
3 232 127 233
3 254 127 255
3 13 240 371
3 371 161 372
3 194 13 372
3 232 240 256
3 256 255 232
3 371 240 234
3 234 233 371
3 410 411 412
3 410 413 411
