ply
format ascii 1.0
comment Created by Blender 2.83.5 - www.blender.org, source file: 'agent3d-uv-map-v5.blend'
element vertex 454
property float x
property float y
property float z
property float nx
property float ny
property float nz
property float s
property float t
property uchar red
property uchar green
property uchar blue
property uchar alpha
element face 606
property list uchar uint vertex_indices
end_header
0.085491 -0.003008 0.726894 -0.185766 0.392804 -0.900632 0.281250 0.453125 255 0 0 255
0.121956 -0.027997 0.686153 0.110019 -0.978790 -0.172704 0.218750 0.390625 255 0 0 255
0.091782 -0.054927 0.777661 0.577349 -0.798547 0.170080 0.218750 0.468750 255 0 0 255
0.034393 0.033001 0.732682 0.123386 0.956694 -0.263588 0.453125 0.843750 255 255 255 255
-0.000000 0.015083 0.856174 0.014679 0.915525 0.401959 0.500000 0.765625 255 255 255 255
0.082943 0.049941 0.776844 0.167943 0.980224 0.104434 0.406250 0.781250 255 0 0 255
0.046066 -0.007432 0.000000 -0.717154 0.288186 -0.634510 0.093750 0.062500 0 255 255 255
0.064587 0.014637 0.000000 0.027467 0.835841 -0.548235 0.109375 0.046875 0 255 255 255
0.081209 -0.008181 0.000000 0.679281 0.321879 -0.659505 0.093750 0.031250 0 255 255 255
0.031150 0.016201 0.688501 0.379803 0.896420 -0.228339 0.328125 0.617188 255 255 255 255
0.085491 -0.003008 0.726894 -0.185766 0.392804 -0.900632 0.375000 0.640625 255 0 0 255
0.081730 -0.041634 0.688501 0.950072 -0.183508 -0.252297 0.406250 0.617188 128 128 128 255
0.032084 -0.043809 0.842689 0.549120 -0.717917 0.427778 0.468750 0.726562 255 255 255 255
0.034393 -0.081673 0.757318 0.253670 -0.955046 0.153356 0.460938 0.656250 0 255 0 255
0.091782 -0.054927 0.777661 0.577349 -0.798547 0.170080 0.406250 0.656250 255 0 0 255
0.032084 0.006878 0.852608 0.484603 0.496200 0.720328 0.468750 0.750000 255 255 255 255
0.121543 -0.004161 0.818709 0.777429 0.019929 0.628620 0.406250 0.734375 255 0 0 255
0.067137 0.006171 0.071364 0.009369 0.997803 -0.065157 0.359375 0.171875 255 0 255 255
0.041043 -0.015655 0.163175 -0.989593 -0.077761 -0.120945 0.312500 0.257812 255 0 255 255
0.068637 0.018023 0.163474 0.027345 0.984832 -0.171148 0.359375 0.257812 255 0 255 255
-0.000000 0.033001 0.486976 0.000000 0.792261 -0.610126 0.312500 0.484375 255 255 255 255
0.047280 0.033002 0.494928 0.296579 0.948576 -0.110446 0.359375 0.484375 255 255 255 255
0.000000 -0.019463 0.470707 0.002258 -0.014924 -0.999878 0.312500 0.468750 128 128 128 255
0.000000 -0.019463 0.470707 0.002258 -0.014924 -0.999878 0.500000 0.468750 128 128 128 255
0.047280 -0.064872 0.494927 0.252815 -0.959899 -0.121036 0.453125 0.484375 128 128 128 255
-0.000000 -0.064872 0.486976 0.000000 -0.761681 -0.647908 0.500000 0.484375 128 128 128 255
0.085491 -0.003008 0.726894 -0.185766 0.392804 -0.900632 0.406250 0.828125 255 0 0 255
-0.153939 -0.034331 0.496869 -0.997375 0.011658 -0.071291 0.156250 0.187500 255 0 0 255
-0.141070 -0.016826 0.502213 -0.110538 0.982299 -0.151189 0.093750 0.203125 255 0 0 255
-0.138823 -0.014571 0.495499 -0.018464 0.973418 0.228156 0.093750 0.187500 255 0 0 255
0.127445 -0.037024 0.500866 -0.947447 -0.054353 0.315165 0.031250 0.203125 255 0 0 255
0.139475 -0.013776 0.493379 -0.003357 0.974029 0.226295 0.093750 0.187500 255 0 0 255
0.123223 -0.037970 0.495763 -0.811548 0.121006 0.571581 0.031250 0.187500 255 0 0 255
0.110112 -0.042331 0.462709 -0.750664 0.605701 -0.263833 0.367188 0.125000 255 0 0 255
0.125043 -0.004925 0.445883 -0.245796 0.955199 -0.164800 0.375000 0.117188 255 0 0 255
0.124810 -0.073351 0.452252 -0.078829 -0.965819 -0.246895 0.343750 0.117188 255 0 0 255
0.107466 -0.021593 0.408795 -0.671743 0.635853 -0.380016 0.375000 0.101562 255 0 0 255
0.119964 -0.039439 0.401934 0.181616 -0.054140 -0.981872 0.359375 0.093750 255 0 0 255
0.108373 -0.061005 0.413064 -0.626087 -0.720725 -0.297555 0.343750 0.101562 255 0 0 255
0.114043 -0.052399 0.461141 -0.328776 -0.341685 -0.880398 0.359375 0.125000 255 0 0 255
0.138778 -0.057384 0.497172 0.185980 -0.874142 0.448592 0.218750 0.187500 255 0 0 255
0.106225 -0.061378 0.468488 -0.480422 -0.835109 0.267800 0.250000 0.125000 255 0 0 255
0.124810 -0.073351 0.452252 -0.078829 -0.965819 -0.246895 0.218750 0.125000 255 0 0 255
0.110112 -0.042331 0.462709 -0.750664 0.605701 -0.263833 0.062500 0.125000 255 0 0 255
0.100374 -0.053828 0.468689 -0.853206 0.057100 0.518387 0.031250 0.125000 255 0 0 255
-0.125052 0.050663 0.682301 -0.023774 0.997833 -0.061281 0.093750 0.390625 255 0 0 255
-0.085128 -0.003119 0.729017 0.168157 0.411206 -0.895871 0.031250 0.453125 255 0 0 255
-0.093901 0.007021 0.678553 0.973601 0.010743 -0.227943 0.031250 0.390625 255 0 0 255
0.032471 -0.011533 0.931872 0.752159 0.600085 -0.272195 0.031250 0.640625 0 0 0 255
0.040879 -0.047074 0.917805 0.953948 -0.020600 -0.299173 0.078125 0.640625 255 255 0 255
0.026509 -0.021271 0.906746 0.820856 0.487442 -0.297555 0.031250 0.593750 255 255 0 255
0.106225 -0.061378 0.468488 -0.480422 -0.835109 0.267800 0.343750 0.125000 255 0 0 255
0.130240 -0.016706 0.627387 0.050996 -0.984893 0.165410 0.218750 0.312500 255 0 0 255
0.151006 0.014001 0.645104 0.999115 0.031648 -0.027406 0.156250 0.328125 255 0 0 255
0.127938 -0.019843 0.643714 0.075777 -0.980926 -0.178961 0.218750 0.328125 255 0 0 255
-0.000000 0.011030 0.937924 0.000000 0.934843 -0.355022 0.156250 0.875000 0 0 0 255
-0.029030 -0.001796 0.960177 -0.708579 0.699606 0.091586 0.125000 0.843750 255 255 0 255
-0.000000 0.012630 0.960177 0.000000 0.984344 0.176122 0.156250 0.843750 255 255 0 255
0.045033 -0.107335 0.000000 -0.662526 -0.408643 -0.627705 0.031250 0.062500 255 255 128 255
0.099597 -0.101869 0.000000 0.726463 -0.292520 -0.621784 0.031250 0.031250 255 255 128 255
0.073679 -0.123698 0.000000 0.074801 -0.782769 -0.617756 0.015625 0.046875 255 255 128 255
0.057162 0.025415 0.414370 0.050081 0.990143 -0.130741 0.359375 0.437500 0 0 255 255
0.095922 -0.021070 0.509030 0.990356 -0.002411 0.138493 0.406250 0.484375 128 128 128 255
0.102196 -0.027703 0.419863 0.997284 -0.072024 0.014863 0.406250 0.437500 0 0 255 255
0.107656 -0.007822 0.581949 -0.996643 -0.039094 -0.071718 0.281250 0.265625 255 0 0 255
0.111216 0.007025 0.622531 -0.988220 0.039003 -0.147801 0.281250 0.312500 255 0 0 255
0.071327 -0.072848 0.030419 0.032624 -0.373180 0.927183 0.453125 0.109375 0 255 255 255
0.099498 -0.102591 0.014806 0.781396 -0.404889 0.474807 0.406250 0.062500 255 255 128 255
0.097228 -0.060317 0.027185 0.878170 -0.042940 0.476363 0.406250 0.109375 0 255 255 255
-0.029298 -0.007197 0.879677 -0.846675 0.429273 0.314371 0.125000 0.937500 255 255 255 255
-0.000000 0.015083 0.856174 0.014679 0.915525 0.401959 0.156250 0.968750 255 255 255 255
-0.032085 0.006878 0.852608 -0.509964 0.538316 0.670919 0.125000 0.968750 255 255 255 255
-0.025995 -0.075276 0.984256 -0.594378 -0.512864 0.619404 0.125000 0.750000 255 255 0 255
-0.000000 -0.040038 1.000000 0.000000 -0.005524 0.999969 0.156250 0.781250 255 255 0 255
-0.032869 -0.040038 0.993429 -0.665731 -0.006134 0.746147 0.125000 0.781250 255 255 0 255
0.093254 -0.028139 0.298202 0.992126 -0.044862 -0.116886 0.406250 0.367188 0 0 255 255
0.063581 0.008133 0.306334 0.046297 0.995483 -0.082522 0.359375 0.375000 0 0 255 255
0.094468 -0.028547 0.307984 0.993866 -0.058107 -0.093936 0.406250 0.375000 0 0 255 255
0.097228 -0.060317 0.027185 0.878170 -0.042940 0.476363 0.359375 0.062500 0 255 255 255
0.081204 -0.009635 0.034307 0.884915 0.465651 -0.004151 0.312500 0.046875 0 255 255 255
0.085397 -0.016627 0.052478 0.976196 0.115055 0.183782 0.312500 0.062500 0 255 255 255
0.092040 -0.027730 0.288419 0.995788 -0.089297 0.020081 0.406250 0.359375 255 0 255 255
0.063915 -0.057860 0.296162 0.031465 -0.997162 -0.068056 0.453125 0.367188 0 0 255 255
0.063982 -0.057225 0.285687 0.012513 -0.994446 -0.104312 0.453125 0.359375 255 0 255 255
0.094048 0.007153 0.676385 -0.973540 -0.011780 -0.228187 0.281250 0.390625 255 0 0 255
0.140967 -0.053847 0.503295 0.166662 -0.927793 0.333720 0.218750 0.203125 255 0 0 255
0.155030 -0.033189 0.494788 0.996887 0.033876 -0.071169 0.156250 0.187500 255 0 0 255
0.155294 -0.032790 0.502526 0.998840 -0.039033 -0.028077 0.156250 0.203125 255 0 0 255
0.096536 -0.061622 0.451741 -0.350108 -0.852931 -0.387127 0.320312 0.093750 255 0 0 255
0.097964 -0.049746 0.449428 -0.432752 0.642537 -0.632313 0.312500 0.101562 255 0 0 255
0.104930 -0.055328 0.447898 0.438490 -0.192907 -0.877773 0.320312 0.101562 255 0 0 255
0.031850 -0.015683 0.217614 -0.996368 -0.050050 -0.068514 0.312500 0.312500 255 0 255 255
0.069717 0.030669 0.224536 0.039552 0.997131 0.064364 0.359375 0.312500 255 0 255 255
0.120987 -0.012637 0.425010 -0.307718 0.919736 -0.243568 0.375000 0.109375 255 0 0 255
-0.107157 -0.008075 0.584086 0.997284 -0.016633 -0.071596 0.031250 0.265625 255 0 0 255
-0.126276 -0.037558 0.502944 0.948393 -0.033692 0.315226 0.031250 0.203125 255 0 0 255
-0.013077 -0.086621 0.868322 -0.584338 -0.400861 -0.705557 0.140625 0.562500 255 255 0 255
0.013076 -0.086621 0.868322 0.606830 -0.379131 -0.698538 0.171875 0.562500 255 255 0 255
-0.000000 -0.093482 0.868322 0.000000 -0.750969 -0.660298 0.156250 0.570312 255 255 0 255
0.063651 0.008265 0.295862 0.028718 0.999573 0.004028 0.359375 0.367188 0 0 255 255
0.104235 -0.016325 0.231184 0.998230 -0.042421 0.041078 0.406250 0.312500 255 0 255 255
0.063720 0.008397 0.285390 -0.012268 0.982910 0.183538 0.359375 0.359375 255 0 255 255
-0.139418 -0.054684 0.505338 -0.145878 -0.931944 0.331919 0.218750 0.203125 255 0 0 255
-0.154213 -0.033952 0.504607 -0.997711 -0.061342 -0.028321 0.156250 0.203125 255 0 0 255
0.134165 -0.034329 0.586293 0.025422 -0.957091 0.288644 0.218750 0.265625 255 0 0 255
0.036895 -0.072241 0.564334 0.353801 -0.934049 -0.048158 0.453125 0.539062 128 128 128 255
0.075244 -0.038579 0.624403 0.991852 -0.120731 0.040529 0.406250 0.562500 128 128 128 255
0.027906 -0.078618 0.624403 0.323313 -0.944548 -0.056978 0.453125 0.562500 128 128 128 255
-0.130110 0.040041 0.641109 -0.014466 0.968322 -0.249184 0.093750 0.328125 255 0 0 255
-0.106289 0.006724 0.639659 0.952788 -0.032716 -0.301767 0.031250 0.328125 255 0 0 255
-0.127174 -0.020666 0.645824 -0.053743 -0.982025 -0.180853 0.218750 0.328125 255 0 0 255
-0.152167 0.014877 0.691998 -0.989196 0.067751 0.129948 0.156250 0.390625 255 0 0 255
-0.150995 0.012650 0.647275 -0.999573 0.009308 -0.027528 0.156250 0.328125 255 0 0 255
0.057162 -0.070732 0.414370 0.017853 -0.999664 -0.018616 0.453125 0.437500 0 0 255 255
0.068630 -0.035157 0.051450 0.005799 -0.717124 0.696890 0.453125 0.156250 0 255 255 255
0.084069 -0.016541 0.072580 0.998383 -0.054079 -0.016144 0.406250 0.171875 255 0 255 255
0.067302 -0.035071 0.071552 0.007538 -0.999390 -0.033723 0.453125 0.171875 255 0 255 255
-0.063581 0.008133 0.306334 -0.045869 0.995697 -0.080508 0.359375 0.375000 0 0 255 255
-0.101916 -0.027957 0.419693 -0.997253 -0.072207 0.015259 0.406250 0.437500 0 0 255 255
-0.057162 0.025415 0.413682 -0.049104 0.989776 -0.133732 0.359375 0.437500 0 0 255 255
-0.000000 0.033001 0.732682 0.000000 0.993988 -0.109409 0.312500 0.656250 255 255 255 255
0.034393 0.033001 0.732682 0.123386 0.956694 -0.263588 0.328125 0.656250 255 255 255 255
0.042767 -0.078145 -0.000000 -0.721549 -0.015107 -0.692160 0.062500 0.062500 0 255 255 255
0.097332 -0.072679 -0.000000 0.703421 0.104495 -0.703024 0.062500 0.031250 0 255 255 255
0.046061 -0.008908 0.028720 -0.917325 0.370525 0.145573 0.218750 0.046875 0 255 255 255
0.042767 -0.078145 -0.000000 -0.721549 -0.015107 -0.692160 0.171875 0.031250 0 255 255 255
0.042663 -0.065786 0.026489 -0.818628 -0.203101 0.537156 0.171875 0.062500 0 255 255 255
-0.031151 -0.081673 0.688501 -0.316324 -0.946776 -0.059023 0.453125 0.609375 0 255 0 255
-0.075245 -0.038579 0.624403 -0.991852 -0.120731 0.040529 0.406250 0.562500 128 128 128 255
-0.027907 -0.078618 0.624403 -0.323313 -0.944548 -0.056978 0.453125 0.562500 128 128 128 255
-0.000000 0.025633 0.560645 0.000000 0.994873 0.101077 0.312500 0.539062 255 255 255 255
0.027907 0.019256 0.624403 0.400311 0.911435 0.094760 0.328125 0.562500 255 255 255 255
0.036895 0.025633 0.564334 0.398938 0.903623 0.155736 0.339844 0.539062 255 255 255 255
0.070032 -0.048139 0.224894 0.060244 -0.990966 -0.119663 0.453125 0.312500 255 0 255 255
0.032630 -0.026918 0.282374 -0.993530 -0.079073 -0.081179 0.500000 0.359375 255 0 255 255
0.031850 -0.015683 0.217614 -0.996368 -0.050050 -0.068514 0.500000 0.312500 255 0 255 255
-0.073679 -0.123698 0.000000 -0.074801 -0.782769 -0.617756 0.453125 0.031250 255 255 128 255
-0.099498 -0.102591 0.014806 -0.781396 -0.404889 0.474807 0.406250 0.062500 255 255 128 255
-0.099597 -0.101869 0.000000 -0.726463 -0.292520 -0.621784 0.406250 0.031250 255 255 128 255
-0.068465 0.006085 0.051262 -0.102054 0.981750 0.160436 0.359375 0.156250 0 255 255 255
-0.084069 -0.016541 0.072580 -0.998383 -0.054079 -0.016144 0.406250 0.171875 255 0 255 255
-0.067137 0.006171 0.071364 -0.009369 0.997803 -0.065157 0.359375 0.171875 255 0 255 255
0.121618 -0.069039 0.431064 -0.265725 -0.948546 -0.172094 0.218750 0.109375 255 0 0 255
0.149402 -0.035563 0.442870 0.970641 0.042940 -0.236579 0.156250 0.125000 255 0 0 255
0.068871 -0.040251 0.163739 0.029145 -0.994079 -0.104617 0.453125 0.257812 255 0 255 255
0.041043 -0.015655 0.163175 -0.989593 -0.077761 -0.120945 0.500000 0.257812 255 0 255 255
0.106446 0.007060 0.637493 -0.951781 -0.054628 -0.301859 0.281250 0.328125 255 0 0 255
0.025994 -0.075276 0.984256 0.594378 -0.512864 0.619404 0.125000 0.750000 255 255 0 255
-0.000000 -0.096222 0.960177 0.000000 -0.971374 0.237495 0.156250 0.703125 255 255 0 255
0.029029 -0.086288 0.960177 0.693991 -0.694906 0.188238 0.125000 0.703125 255 255 0 255
-0.063848 -0.058495 0.306636 -0.040345 -0.994842 -0.092959 0.453125 0.375000 0 0 255 255
-0.093254 -0.028139 0.298202 -0.992126 -0.044862 -0.116886 0.406250 0.367188 0 0 255 255
-0.063915 -0.057860 0.296162 -0.031465 -0.997162 -0.068056 0.453125 0.367188 0 0 255 255
-0.000000 0.025902 0.557950 0.000000 0.976867 0.213691 0.312500 0.531250 255 255 255 255
-0.038615 0.029862 0.543805 -0.375530 0.910062 0.175268 0.351562 0.523438 255 255 255 255
-0.037275 0.025903 0.561795 -0.416242 0.880612 0.226356 0.347656 0.531250 255 255 255 255
-0.093901 0.007021 0.678553 0.973601 0.010743 -0.227943 0.281250 0.390625 255 0 0 255
-0.121016 -0.028765 0.688249 -0.086947 -0.980010 -0.178899 0.218750 0.390625 255 0 0 255
-0.129543 -0.017550 0.629503 -0.028932 -0.986084 0.163518 0.218750 0.312500 255 0 0 255
-0.106289 0.006724 0.639659 0.952788 -0.032716 -0.301767 0.281250 0.328125 255 0 0 255
0.025994 -0.008669 0.986555 0.566485 0.568865 0.596210 0.125000 0.812500 255 255 0 255
0.032868 -0.040038 0.993429 0.665731 -0.006134 0.746147 0.125000 0.781250 255 255 0 255
0.031150 -0.081673 0.688501 0.316324 -0.946776 -0.059023 0.453125 0.609375 0 255 0 255
-0.032630 -0.026918 0.282374 0.993530 -0.079073 -0.081179 0.312500 0.359375 255 0 255 255
-0.063651 0.008265 0.295862 -0.028718 0.999573 0.004028 0.359375 0.367188 0 0 255 255
-0.031141 -0.027323 0.293613 0.991577 -0.032502 -0.125340 0.312500 0.367188 0 0 255 255
-0.136187 0.024662 0.582626 -0.008576 0.949583 -0.313334 0.093750 0.265625 255 0 0 255
-0.150544 0.011794 0.630069 -0.994079 0.082827 0.070193 0.156250 0.312500 255 0 0 255
-0.132056 0.035954 0.625262 -0.016327 0.967528 -0.252174 0.093750 0.312500 255 0 0 255
0.097964 -0.049746 0.449428 -0.432752 0.642537 -0.632313 0.062500 0.109375 255 0 0 255
0.092490 -0.056402 0.451879 -0.954436 -0.046144 -0.294809 0.031250 0.109375 255 0 0 255
-0.070032 -0.048139 0.224894 -0.060244 -0.990966 -0.119663 0.453125 0.312500 255 0 255 255
-0.092040 -0.027730 0.288419 -0.995788 -0.089297 0.020081 0.406250 0.359375 255 0 255 255
-0.104235 -0.016325 0.231184 -0.998230 -0.042421 0.041078 0.406250 0.312500 255 0 255 255
-0.000000 0.016201 0.688501 0.000000 0.987548 -0.157201 0.312500 0.609375 255 255 255 255
0.029652 -0.027726 0.304852 -0.985992 -0.049532 -0.159215 0.500000 0.375000 0 0 255 255
0.031141 -0.027323 0.293613 -0.991577 -0.032502 -0.125340 0.500000 0.367188 0 0 255 255
0.120987 -0.012637 0.425010 -0.307718 0.919736 -0.243568 0.093750 0.109375 255 0 0 255
0.140517 -0.038026 0.419002 0.822230 -0.001526 -0.569109 0.156250 0.109375 255 0 0 255
-0.010394 -0.027265 0.402634 0.983276 -0.066103 -0.169652 0.500000 0.437500 0 0 255 255
-0.057233 -0.071393 0.414554 -0.024567 -0.999603 -0.013703 0.453125 0.437500 0 0 255 255
0.010668 -0.026124 0.402891 -0.983764 -0.052553 -0.171484 0.312500 0.437500 0 0 255 255
0.085397 -0.016627 0.052478 0.976196 0.115055 0.183782 0.406250 0.156250 0 255 255 255
0.125043 -0.004925 0.445883 -0.245796 0.955199 -0.164800 0.093750 0.125000 255 0 0 255
-0.029652 -0.027726 0.304852 0.985809 -0.046602 -0.161229 0.500000 0.375000 0 0 255 255
-0.000000 -0.056346 0.853385 0.000000 -0.969939 -0.243294 0.156250 0.515625 255 255 255 255
-0.032085 -0.043809 0.842689 -0.549120 -0.717948 0.427778 0.125000 0.507812 255 255 255 255
-0.000000 -0.052014 0.839123 0.000000 -0.995972 0.089511 0.156250 0.500000 255 255 255 255
-0.148252 -0.036479 0.444947 -0.971313 0.021638 -0.236671 0.156250 0.125000 255 0 0 255
-0.137149 -0.058160 0.499209 -0.166417 -0.878933 0.446883 0.218750 0.187500 255 0 0 255
0.123223 -0.037970 0.495763 -0.811548 0.121006 0.571581 0.281250 0.187500 255 0 0 255
-0.032472 -0.011533 0.931870 -0.752159 0.600085 -0.272225 0.125000 0.875000 0 0 0 255
-0.000000 -0.004866 0.918865 0.000000 0.957152 -0.289529 0.156250 0.906250 255 255 0 255
-0.026510 -0.021271 0.906746 -0.845485 0.504807 -0.174017 0.125000 0.906250 255 255 0 255
0.050031 -0.071585 0.716961 0.544725 -0.832972 -0.096896 0.433594 0.636719 0 255 0 255
0.127445 -0.037024 0.500866 -0.947447 -0.054353 0.315165 0.281250 0.203125 255 0 0 255
0.068465 0.006085 0.051262 0.102054 0.981750 0.160436 0.265625 0.062500 0 255 255 255
0.064582 0.013172 0.031568 -0.009369 0.981170 0.192755 0.265625 0.046875 0 255 255 255
-0.107157 -0.008075 0.584086 0.997284 -0.016633 -0.071596 0.281250 0.265625 255 0 0 255
-0.133066 -0.035178 0.588374 -0.003998 -0.957976 0.286813 0.218750 0.265625 255 0 0 255
0.152121 0.016339 0.689823 0.987854 0.087222 0.128574 0.156250 0.390625 255 0 0 255
-0.000000 -0.001796 0.989975 0.000000 0.682302 0.731040 0.156250 0.812500 255 255 0 255
0.029029 -0.001796 0.960177 0.708579 0.699606 0.091586 0.125000 0.843750 255 255 0 255
-0.094817 -0.061363 0.453777 0.369182 -0.844142 -0.388684 0.250000 0.093750 255 0 0 255
-0.098830 -0.053690 0.470739 0.851650 0.075198 0.518632 0.281250 0.125000 255 0 0 255
-0.104511 -0.061369 0.470523 0.498978 -0.824641 0.266305 0.250000 0.125000 255 0 0 255
-0.111055 0.006611 0.624696 0.987121 0.061434 -0.147526 0.031250 0.312500 255 0 0 255
-0.097332 -0.072679 -0.000000 -0.703421 0.104495 -0.703024 0.359375 0.031250 0 255 255 255
-0.081204 -0.009635 0.034307 -0.884915 0.465651 -0.004151 0.312500 0.046875 0 255 255 255
-0.081209 -0.008181 0.000000 -0.679281 0.321879 -0.659505 0.312500 0.031250 0 255 255 255
-0.044934 -0.108060 0.014110 0.715201 -0.520127 0.466811 0.500000 0.062500 255 255 128 255
-0.073579 -0.124425 0.013434 -0.072085 -0.878292 0.472640 0.453125 0.062500 255 255 128 255
-0.048559 -0.016017 0.070232 0.996490 -0.040254 -0.073061 0.500000 0.171875 255 0 255 255
-0.068630 -0.035157 0.051450 -0.005799 -0.717124 0.696890 0.453125 0.156250 0 255 255 255
-0.049887 -0.016103 0.050130 0.958190 0.093417 0.270363 0.500000 0.156250 0 255 255 255
0.073579 -0.124425 0.013434 0.072085 -0.878292 0.472640 0.453125 0.062500 255 255 128 255
0.044934 -0.108060 0.014110 -0.715201 -0.520127 0.466811 0.500000 0.062500 255 255 128 255
0.049887 -0.016103 0.050130 -0.958190 0.093417 0.270363 0.500000 0.156250 0 255 255 255
0.042663 -0.065786 0.026489 -0.818628 -0.203101 0.537156 0.500000 0.109375 0 255 255 255
0.093792 -0.016153 0.164037 0.987487 -0.085971 -0.132115 0.406250 0.257812 255 0 255 255
0.024617 -0.089932 0.910307 0.725639 -0.663594 -0.181890 0.125000 0.640625 255 255 0 255
-0.020514 -0.046925 0.881934 -0.944029 -0.275979 -0.180517 0.125000 0.562500 255 255 0 255
-0.029298 -0.007197 0.879677 -0.846675 0.429273 0.314371 0.093750 0.531250 255 255 255 255
-0.029275 -0.045367 0.862311 -0.815638 -0.561907 0.137791 0.125000 0.531250 255 255 255 255
-0.000000 -0.098330 0.908819 0.000000 -0.997986 -0.063021 0.156250 0.640625 255 255 0 255
-0.029652 -0.027726 0.304852 0.985809 -0.046602 -0.161229 0.312500 0.375000 0 0 255 255
-0.093792 -0.016153 0.164037 -0.987487 -0.085971 -0.132115 0.406250 0.257812 255 0 255 255
-0.069717 0.030669 0.224536 -0.039552 0.997131 0.064364 0.359375 0.312500 255 0 255 255
-0.068637 0.018023 0.163474 -0.027345 0.984832 -0.171148 0.359375 0.257812 255 0 255 255
-0.068871 -0.040251 0.163739 -0.029145 -0.994079 -0.104617 0.453125 0.257812 255 0 255 255
0.064587 0.014637 0.000000 0.027467 0.835841 -0.548235 0.265625 0.031250 0 255 255 255
0.046066 -0.007432 0.000000 -0.717154 0.288186 -0.634510 0.218750 0.031250 0 255 255 255
-0.015576 -0.081673 0.716602 -0.096316 -0.994751 -0.033601 0.476562 0.632812 0 255 0 255
-0.000000 -0.081673 0.688501 0.000000 -0.999084 -0.042726 0.500000 0.609375 0 255 0 255
-0.000000 -0.085737 0.722909 0.000000 -0.998993 -0.044435 0.500000 0.632812 0 255 0 255
0.135944 0.025555 0.580430 -0.012635 0.948943 -0.315165 0.093750 0.265625 255 0 0 255
0.111216 0.007025 0.622531 -0.988220 0.039003 -0.147801 0.031250 0.312500 255 0 0 255
0.131554 0.036832 0.623044 -0.005280 0.967162 -0.254036 0.093750 0.312500 255 0 0 255
-0.071327 -0.072848 0.030419 -0.032624 -0.373180 0.927183 0.453125 0.109375 0 255 255 255
-0.000000 -0.052014 0.839123 0.000000 -0.995972 0.089511 0.500000 0.718750 255 255 255 255
-0.000000 -0.085737 0.757318 0.000000 -0.985229 0.171148 0.500000 0.656250 0 255 0 255
0.048559 -0.016017 0.070232 -0.996490 -0.040254 -0.073061 0.500000 0.171875 255 0 255 255
-0.124586 -0.005309 0.448022 0.224372 0.960753 -0.162938 0.093750 0.125000 255 0 0 255
0.106225 -0.061378 0.468488 -0.480422 -0.835109 0.267800 0.328125 0.117188 255 0 0 255
0.114043 -0.052399 0.461141 -0.328776 -0.341685 -0.880398 0.320312 0.117188 255 0 0 255
-0.000000 0.005108 0.887520 0.063265 0.941771 0.330180 0.156250 0.937500 255 255 255 255
0.026509 -0.021271 0.906746 0.820856 0.487442 -0.297555 0.125000 0.906250 255 255 0 255
0.019275 -0.007197 0.879677 0.813562 0.486068 0.319071 0.125000 0.937500 255 255 255 255
-0.020514 -0.046925 0.881934 -0.944029 -0.275979 -0.180517 0.078125 0.593750 255 255 0 255
-0.024618 -0.089932 0.910307 -0.719077 -0.674856 -0.165777 0.125000 0.640625 255 255 0 255
-0.040880 -0.047074 0.917805 -0.962554 -0.017365 -0.270455 0.078125 0.640625 255 255 0 255
-0.106660 -0.060938 0.415100 0.642109 -0.705924 -0.298807 0.218750 0.093750 255 0 0 255
-0.139311 -0.038697 0.421076 -0.821925 -0.018860 -0.569231 0.156250 0.109375 255 0 0 255
-0.118729 -0.039616 0.404009 -0.180212 -0.056337 -0.981994 0.156250 0.093750 255 0 0 255
-0.050032 -0.071585 0.716961 -0.544725 -0.832972 -0.096896 0.433594 0.636719 0 255 0 255
-0.032772 -0.081673 0.714107 -0.265114 -0.964080 -0.013764 0.457031 0.632812 0 255 0 255
-0.034394 -0.081673 0.757318 -0.253670 -0.955046 0.153356 0.460938 0.656250 0 255 0 255
0.063848 -0.058495 0.306636 0.039247 -0.995300 -0.088382 0.453125 0.375000 0 0 255 255
-0.042767 -0.078145 -0.000000 0.721549 -0.015107 -0.692160 0.171875 0.031250 0 255 255 255
-0.044934 -0.108060 0.014110 0.715201 -0.520127 0.466811 0.125000 0.062500 255 255 128 255
-0.045033 -0.107335 0.000000 0.662526 -0.408643 -0.627705 0.125000 0.031250 255 255 128 255
-0.000000 -0.060679 0.867648 0.035463 -0.547288 -0.836177 0.156250 0.531250 255 255 255 255
0.016442 -0.046925 0.881934 0.962035 -0.214942 -0.168126 0.125000 0.562500 255 255 0 255
0.013076 -0.086621 0.868322 0.606830 -0.379131 -0.698538 0.140625 0.562500 255 255 0 255
-0.043456 -0.040038 0.960177 -0.992950 0.026093 0.115482 0.078125 0.703125 255 255 0 255
-0.025995 -0.008669 0.986555 -0.566485 0.568865 0.596210 0.031250 0.750000 255 255 0 255
-0.029030 -0.001796 0.960177 -0.708579 0.699606 0.091586 0.031250 0.703125 255 255 0 255
0.032471 -0.011533 0.931872 0.752159 0.600085 -0.272195 0.125000 0.875000 0 0 0 255
0.032084 0.006878 0.852608 0.484603 0.496200 0.720328 0.093750 0.500000 255 255 255 255
0.029274 -0.045367 0.862311 0.819086 -0.520615 0.240883 0.125000 0.531250 255 255 255 255
0.032084 -0.043809 0.842689 0.549120 -0.717917 0.427778 0.125000 0.507812 255 255 255 255
0.016442 -0.046925 0.881934 0.962035 -0.214942 -0.168126 0.078125 0.593750 255 255 0 255
0.013076 -0.086621 0.868322 0.606830 -0.379131 -0.698538 0.140625 0.593750 255 255 0 255
0.141771 -0.015966 0.500097 0.088534 0.984222 -0.153050 0.093750 0.203125 255 0 0 255
0.107656 -0.007822 0.581949 -0.996643 -0.039094 -0.071718 0.031250 0.265625 255 0 0 255
-0.032630 -0.026918 0.282374 0.993530 -0.079073 -0.081179 0.500000 0.359375 255 0 255 255
-0.063982 -0.057225 0.285687 -0.012513 -0.994446 -0.104343 0.453125 0.359375 255 0 255 255
0.032084 0.006878 0.852608 0.484603 0.496200 0.720328 0.125000 0.968750 255 255 255 255
-0.085128 -0.003119 0.729017 0.168157 0.411206 -0.895871 0.281250 0.453125 255 0 0 255
-0.091783 -0.054927 0.777661 -0.575640 -0.799829 0.169927 0.218750 0.468750 255 0 0 255
-0.034394 0.033001 0.732682 -0.131504 0.955168 -0.265145 0.453125 0.843750 255 255 255 255
-0.000000 0.033001 0.732682 0.000000 0.993988 -0.109409 0.500000 0.843750 255 255 255 255
-0.046066 -0.007432 0.000000 0.717154 0.288186 -0.634510 0.093750 0.062500 0 255 255 255
-0.081209 -0.008181 0.000000 -0.679281 0.321879 -0.659505 0.093750 0.031250 0 255 255 255
-0.064587 0.014637 0.000000 -0.027467 0.835841 -0.548235 0.109375 0.046875 0 255 255 255
-0.032085 -0.043809 0.842689 -0.549120 -0.717948 0.427778 0.468750 0.726562 255 255 255 255
-0.091783 -0.054927 0.777661 -0.575640 -0.799829 0.169927 0.406250 0.656250 255 0 0 255
-0.082944 0.049941 0.776844 -0.169774 0.980682 0.096927 0.406250 0.781250 255 0 0 255
-0.121544 -0.004161 0.818709 -0.776330 0.020875 0.629933 0.406250 0.734375 255 0 0 255
-0.032085 0.006878 0.852608 -0.509964 0.538316 0.670919 0.468750 0.750000 255 255 255 255
-0.041043 -0.015655 0.163175 0.989593 -0.077761 -0.120945 0.312500 0.257812 255 0 255 255
-0.048559 -0.016017 0.070232 0.996490 -0.040254 -0.073061 0.312500 0.171875 255 0 255 255
-0.081731 -0.041634 0.688501 -0.952330 -0.177801 -0.247841 0.406250 0.617188 128 128 128 255
-0.085128 -0.003119 0.729017 0.168157 0.411206 -0.895871 0.375000 0.640625 255 0 0 255
-0.047281 0.033002 0.494928 -0.296701 0.948576 -0.110111 0.359375 0.484375 255 255 255 255
-0.047281 -0.064872 0.494927 -0.252907 -0.960143 -0.118809 0.453125 0.484375 128 128 128 255
-0.085128 -0.003119 0.729017 0.168157 0.411206 -0.895871 0.406250 0.828125 255 0 0 255
-0.122033 -0.038399 0.497840 0.808557 0.138066 0.571947 0.031250 0.187500 255 0 0 255
-0.108823 -0.042403 0.464781 0.736930 0.622852 -0.262551 0.367188 0.125000 255 0 0 255
-0.122820 -0.073724 0.454262 0.100467 -0.963317 -0.248726 0.343750 0.117188 255 0 0 255
-0.124586 -0.005309 0.448022 0.224372 0.960753 -0.162938 0.375000 0.117188 255 0 0 255
-0.106635 -0.021508 0.410906 0.657369 0.651479 -0.378674 0.375000 0.101562 255 0 0 255
-0.106660 -0.060938 0.415100 0.642109 -0.705924 -0.298807 0.343750 0.101562 255 0 0 255
-0.118729 -0.039616 0.404009 -0.180212 -0.056337 -0.981994 0.359375 0.093750 255 0 0 255
-0.112528 -0.052553 0.463192 0.336467 -0.332530 -0.881008 0.359375 0.125000 255 0 0 255
-0.122820 -0.073724 0.454262 0.100467 -0.963317 -0.248726 0.218750 0.125000 255 0 0 255
-0.108823 -0.042403 0.464781 0.736930 0.622852 -0.262551 0.062500 0.125000 255 0 0 255
-0.098830 -0.053690 0.470739 0.851650 0.075198 0.518632 0.031250 0.125000 255 0 0 255
0.124212 0.051489 0.680054 -0.000061 0.997772 -0.066256 0.093750 0.390625 255 0 0 255
0.085491 -0.003008 0.726894 -0.185766 0.392804 -0.900632 0.031250 0.453125 255 0 0 255
0.082943 0.049941 0.776844 0.167943 0.980224 0.104434 0.093750 0.468750 255 0 0 255
-0.031151 0.016201 0.688501 -0.383923 0.895444 -0.225196 0.328125 0.617188 255 255 255 255
-0.104511 -0.061369 0.470523 0.498978 -0.824641 0.266305 0.343750 0.125000 255 0 0 255
-0.097228 -0.060317 0.027185 -0.878170 -0.042940 0.476363 0.406250 0.109375 0 255 255 255
-0.085397 -0.016627 0.052478 -0.976196 0.115055 0.183782 0.406250 0.156250 0 255 255 255
-0.045033 -0.107335 0.000000 0.662526 -0.408643 -0.627705 0.031250 0.062500 255 255 128 255
-0.073679 -0.123698 0.000000 -0.074801 -0.782769 -0.617756 0.015625 0.046875 255 255 128 255
-0.099597 -0.101869 0.000000 -0.726463 -0.292520 -0.621784 0.031250 0.031250 255 255 128 255
-0.095923 -0.021070 0.509030 -0.990417 -0.002350 0.138005 0.406250 0.484375 128 128 128 255
-0.032085 0.006878 0.852608 -0.509964 0.538316 0.670919 0.093750 0.500000 255 255 255 255
0.162452 -0.000953 0.584774 0.996216 0.059420 0.063387 0.156250 0.265625 255 0 0 255
-0.097228 -0.060317 0.027185 -0.878170 -0.042940 0.476363 0.359375 0.062500 0 255 255 255
-0.085397 -0.016627 0.052478 -0.976196 0.115055 0.183782 0.312500 0.062500 0 255 255 255
-0.126276 -0.037558 0.502944 0.948393 -0.033692 0.315226 0.281250 0.203125 255 0 0 255
-0.122033 -0.038399 0.497840 0.808557 0.138066 0.571947 0.281250 0.187500 255 0 0 255
-0.096510 -0.049518 0.451488 0.418317 0.653279 -0.631001 0.312500 0.101562 255 0 0 255
-0.094817 -0.061363 0.453777 0.369182 -0.844142 -0.388684 0.320312 0.093750 255 0 0 255
-0.103349 -0.055252 0.449945 -0.433943 -0.200995 -0.878201 0.320312 0.101562 255 0 0 255
0.106446 0.007060 0.637493 -0.951781 -0.054628 -0.301859 0.031250 0.328125 255 0 0 255
0.129514 0.040905 0.638883 -0.007141 0.967925 -0.251045 0.093750 0.328125 255 0 0 255
-0.120356 -0.012888 0.427135 0.287057 0.926878 -0.241768 0.375000 0.109375 255 0 0 255
-0.119724 -0.069301 0.433082 0.286935 -0.942015 -0.173864 0.343750 0.109375 255 0 0 255
-0.162095 -0.002441 0.586914 -0.997284 0.036958 0.063295 0.156250 0.265625 255 0 0 255
0.121543 -0.004161 0.818709 0.777429 0.019929 0.628620 0.156250 0.484375 255 0 0 255
-0.042663 -0.065786 0.026489 0.818628 -0.203101 0.537156 0.500000 0.109375 0 255 255 255
-0.063720 0.008397 0.285390 0.012268 0.982910 0.183538 0.359375 0.359375 255 0 255 255
-0.084838 -0.030456 0.570877 -0.984436 -0.080844 0.155919 0.406250 0.539062 128 128 128 255
-0.027907 0.019256 0.624403 -0.400311 0.911435 0.094760 0.328125 0.562500 255 255 255 255
-0.036896 0.025633 0.564334 -0.398938 0.903623 0.155736 0.339844 0.539062 255 255 255 255
0.094048 0.007153 0.676385 -0.973540 -0.011780 -0.228187 0.031250 0.390625 255 0 0 255
-0.000000 0.019256 0.624403 0.000000 0.997284 0.073580 0.312500 0.562500 255 255 255 255
-0.000000 -0.078618 0.624403 0.000000 -0.997284 -0.073580 0.500000 0.562500 128 128 128 255
-0.010394 -0.027265 0.402634 0.983276 -0.066103 -0.169652 0.312500 0.437500 0 0 255 255
-0.064587 0.014637 0.000000 -0.027467 0.835841 -0.548235 0.265625 0.031250 0 255 255 255
-0.046061 -0.008908 0.028720 0.917325 0.370525 0.145573 0.218750 0.046875 0 255 255 255
-0.046066 -0.007432 0.000000 0.717154 0.288186 -0.634510 0.218750 0.031250 0 255 255 255
-0.036896 -0.072241 0.564334 -0.353801 -0.934049 -0.048158 0.453125 0.539062 128 128 128 255
-0.120356 -0.012888 0.427135 0.287057 0.926878 -0.241768 0.093750 0.109375 255 0 0 255
-0.106635 -0.021508 0.410906 0.657369 0.651479 -0.378674 0.093750 0.093750 255 0 0 255
0.073679 -0.123698 0.000000 0.074801 -0.782769 -0.617756 0.453125 0.031250 255 255 128 255
0.068465 0.006085 0.051262 0.102054 0.981750 0.160436 0.359375 0.156250 0 255 255 255
-0.119724 -0.069301 0.433082 0.286935 -0.942015 -0.173864 0.218750 0.109375 255 0 0 255
-0.031850 -0.015683 0.217614 0.996368 -0.050050 -0.068514 0.500000 0.312500 255 0 255 255
-0.067302 -0.035071 0.071552 -0.007538 -0.999390 -0.033723 0.453125 0.171875 255 0 255 255
-0.029030 -0.086288 0.960177 -0.693991 -0.694906 0.188238 0.125000 0.703125 255 255 0 255
0.084837 -0.030456 0.570877 0.984436 -0.080844 0.155919 0.406250 0.539062 128 128 128 255
-0.000000 -0.072241 0.560645 0.000000 -0.994873 -0.101108 0.500000 0.539062 128 128 128 255
-0.025995 -0.008669 0.986555 -0.566485 0.568865 0.596210 0.125000 0.812500 255 255 0 255
-0.042767 -0.078145 -0.000000 0.721549 -0.015107 -0.692160 0.062500 0.062500 0 255 255 255
0.032630 -0.026918 0.282374 -0.993530 -0.079073 -0.081179 0.312500 0.359375 255 0 255 255
0.150578 0.013102 0.627900 0.991943 0.105228 0.070162 0.156250 0.312500 255 0 0 255
-0.064582 0.013172 0.031568 0.009369 0.981170 0.192755 0.265625 0.046875 0 255 255 255
0.010668 -0.026124 0.402891 -0.983764 -0.052553 -0.171484 0.500000 0.437500 0 0 255 255
-0.082944 0.049941 0.776844 -0.169774 0.980682 0.096927 0.093750 0.468750 255 0 0 255
-0.096510 -0.049518 0.451488 0.418317 0.653279 -0.631001 0.062500 0.109375 255 0 0 255
0.081209 -0.008181 0.000000 0.679281 0.321879 -0.659505 0.312500 0.031250 0 255 255 255
-0.032869 -0.040038 0.993429 -0.665731 -0.006134 0.746147 0.078125 0.750000 255 255 0 255
-0.068465 0.006085 0.051262 -0.102054 0.981750 0.160436 0.265625 0.062500 0 255 255 255
-0.049887 -0.016103 0.050130 0.958190 0.093417 0.270363 0.218750 0.062500 0 255 255 255
-0.000000 -0.093482 0.868322 0.000000 -0.750969 -0.660298 0.156250 0.593750 255 255 0 255
0.121618 -0.069039 0.431064 -0.265725 -0.948546 -0.172094 0.343750 0.109375 255 0 0 255
0.096536 -0.061622 0.451741 -0.350108 -0.852931 -0.387127 0.250000 0.093750 255 0 0 255
0.100374 -0.053828 0.468689 -0.853206 0.057100 0.518387 0.281250 0.125000 255 0 0 255
0.092490 -0.056402 0.451879 -0.954436 -0.046144 -0.294809 0.281250 0.093750 255 0 0 255
-0.031850 -0.015683 0.217614 0.996368 -0.050050 -0.068514 0.312500 0.312500 255 0 255 255
0.097332 -0.072679 -0.000000 0.703421 0.104495 -0.703024 0.359375 0.031250 0 255 255 255
0.045033 -0.107335 0.000000 -0.662526 -0.408643 -0.627705 0.500000 0.031250 255 255 128 255
0.110112 -0.042331 0.462709 -0.750664 0.605701 -0.263833 0.312500 0.117188 255 0 0 255
0.099597 -0.101869 0.000000 0.726463 -0.292520 -0.621784 0.406250 0.031250 255 255 128 255
0.019275 -0.007197 0.879677 0.813562 0.486068 0.319071 0.093750 0.531250 255 255 255 255
0.031141 -0.027323 0.293613 -0.991577 -0.032502 -0.125340 0.312500 0.367188 0 0 255 255
-0.031141 -0.027323 0.293613 0.991577 -0.032502 -0.125340 0.500000 0.367188 0 0 255 255
0.015575 -0.081673 0.716602 0.096316 -0.994751 -0.033601 0.476562 0.632812 0 255 0 255
0.032771 -0.081673 0.714107 0.265114 -0.964080 -0.013764 0.457031 0.632812 0 255 0 255
-0.108823 -0.042403 0.464781 0.736930 0.622852 -0.262551 0.312500 0.117188 255 0 0 255
-0.112528 -0.052553 0.463192 0.336467 -0.332530 -0.881008 0.320312 0.117188 255 0 0 255
-0.041043 -0.015655 0.163175 0.989593 -0.077761 -0.120945 0.500000 0.257812 255 0 255 255
-0.104511 -0.061369 0.470523 0.498978 -0.824641 0.266305 0.328125 0.117188 255 0 0 255
-0.032472 -0.011533 0.931870 -0.752159 0.600085 -0.272225 0.031250 0.640625 0 0 0 255
0.108373 -0.061005 0.413064 -0.626087 -0.720725 -0.297555 0.218750 0.093750 255 0 0 255
0.043455 -0.040038 0.960177 0.992950 0.026093 0.115482 0.078125 0.703125 255 255 0 255
-0.094468 -0.028547 0.307984 -0.993957 -0.056734 -0.093905 0.406250 0.375000 0 0 255 255
0.044934 -0.108060 0.014110 -0.715201 -0.520127 0.466811 0.125000 0.062500 255 255 128 255
0.045033 -0.107335 0.000000 -0.662526 -0.408643 -0.627705 0.125000 0.031250 255 255 128 255
0.025994 -0.008669 0.986555 0.566485 0.568865 0.596210 0.031250 0.750000 255 255 0 255
0.029029 -0.001796 0.960177 0.708579 0.699606 0.091586 0.031250 0.703125 255 255 0 255
-0.013077 -0.086621 0.868322 -0.584338 -0.400861 -0.705557 0.140625 0.593750 255 255 0 255
-0.026510 -0.021271 0.906746 -0.845485 0.504807 -0.174017 0.031250 0.593750 255 255 0 255
0.119964 -0.039439 0.401934 0.181616 -0.054140 -0.981872 0.156250 0.093750 255 0 0 255
0.107466 -0.021593 0.408795 -0.671743 0.635853 -0.380016 0.093750 0.093750 255 0 0 255
0.049887 -0.016103 0.050130 -0.958190 0.093417 0.270363 0.218750 0.062500 0 255 255 255
-0.042663 -0.065786 0.026489 0.818628 -0.203101 0.537156 0.171875 0.062500 0 255 255 255
0.049887 -0.016103 0.050130 -0.958190 0.093417 0.270363 0.312500 0.156250 0 255 255 255
-0.049887 -0.016103 0.050130 0.958190 0.093417 0.270363 0.312500 0.156250 0 255 255 255
0.048559 -0.016017 0.070232 -0.996490 -0.040254 -0.073061 0.312500 0.171875 255 0 255 255
-0.000000 -0.081797 0.989975 0.000000 -0.637287 0.770592 0.156250 0.750000 255 255 0 255
0.092490 -0.056402 0.451879 -0.954436 -0.046144 -0.294809 0.312500 0.093750 255 0 0 255
-0.111055 0.006611 0.624696 0.987121 0.061434 -0.147526 0.281250 0.312500 255 0 0 255
0.029652 -0.027726 0.304852 -0.985992 -0.049532 -0.159215 0.312500 0.375000 0 0 255 255
-0.090889 -0.056054 0.453927 0.955260 -0.024201 -0.294717 0.281250 0.093750 255 0 0 255
-0.045033 -0.107335 0.000000 0.662526 -0.408643 -0.627705 0.500000 0.031250 255 255 128 255
-0.026510 -0.021271 0.906746 -0.845485 0.504807 -0.174017 0.093750 0.562500 255 255 0 255
0.096536 -0.061622 0.451741 -0.350108 -0.852931 -0.387127 0.328125 0.101562 255 0 0 255
-0.034394 0.033001 0.732682 -0.131504 0.955168 -0.265145 0.328125 0.656250 255 255 255 255
-0.090889 -0.056054 0.453927 0.955260 -0.024201 -0.294717 0.312500 0.093750 255 0 0 255
-0.121544 -0.004161 0.818709 -0.776330 0.020875 0.629933 0.156250 0.484375 255 0 0 255
-0.097332 -0.072679 -0.000000 -0.703421 0.104495 -0.703024 0.062500 0.031250 0 255 255 255
-0.090889 -0.056054 0.453927 0.955260 -0.024201 -0.294717 0.031250 0.109375 255 0 0 255
0.026509 -0.021271 0.906746 0.820856 0.487442 -0.297555 0.093750 0.562500 255 255 0 255
-0.094817 -0.061363 0.453777 0.369182 -0.844142 -0.388684 0.328125 0.101562 255 0 0 255
0.032868 -0.040038 0.993429 0.665731 -0.006134 0.746147 0.078125 0.750000 255 255 0 255
0.070000 -0.046074 0.700000 0.000000 -1.000000 -0.000005 0.250000 0.500000 127 0 0 255
-0.070000 -0.046074 0.780000 0.000000 -1.000000 -0.000005 0.187500 0.843750 127 0 0 255
-0.070000 -0.046074 0.700000 0.000000 -1.000000 -0.000005 0.187500 0.500000 127 0 0 255
0.070000 -0.046074 0.780000 0.000000 -1.000000 -0.000005 0.250000 0.843750 127 0 0 255
-0.000000 -0.071971 0.557950 0.000000 -0.994568 -0.104007 0.500000 0.531250 128 128 128 255
-0.038615 -0.070079 0.543805 -0.345592 -0.936705 -0.055757 0.453125 0.523438 128 128 128 255
0.000008 -0.070079 0.539866 0.000000 -0.994720 -0.102481 0.500000 0.523438 128 128 128 255
-0.037055 -0.072128 0.563266 -0.355449 -0.933561 -0.045930 0.453125 0.535156 0 128 255 255
-0.000000 -0.072128 0.559512 0.000000 -0.995025 -0.099582 0.500000 0.535156 0 128 255 255
0.037274 -0.071971 0.561795 0.368480 -0.928617 -0.043489 0.453125 0.531250 0 255 128 255
-0.000000 -0.071971 0.557950 0.000000 -0.995025 -0.099490 0.500000 0.531250 0 255 128 255
0.085243 -0.030113 0.568614 0.984527 -0.006684 0.174932 0.406250 0.531250 0 255 128 255
0.037055 0.025746 0.563266 0.398541 0.903806 0.155705 0.343750 0.535156 0 128 255 255
0.085008 -0.030312 0.569925 0.983459 -0.075137 0.164769 0.406250 0.535156 0 128 255 255
-0.037275 -0.071971 0.561795 -0.368450 -0.928617 -0.043489 0.453125 0.531250 0 255 128 255
-0.085009 -0.030312 0.569925 -0.983459 -0.075137 0.164769 0.406250 0.535156 0 128 255 255
-0.085244 -0.030113 0.568614 -0.984527 -0.006684 0.174963 0.406250 0.531250 0 255 128 255
-0.037055 0.025746 0.563266 -0.398541 0.903806 0.155705 0.343750 0.535156 0 128 255 255
-0.037275 0.025903 0.561795 -0.394452 0.905728 0.155095 0.347656 0.531250 0 255 128 255
0.037275 0.025903 0.561795 0.394452 0.905728 0.155095 0.347656 0.531250 0 255 128 255
-0.000000 0.025746 0.559512 0.000000 0.995025 0.099582 0.312500 0.535156 0 128 255 255
0.037054 -0.072128 0.563266 0.355449 -0.933561 -0.045930 0.453125 0.535156 0 128 255 255
0.038632 0.029862 0.543805 0.375652 0.910001 0.175359 0.351562 0.523438 255 255 255 255
0.037275 0.025903 0.561795 0.415937 0.880642 0.226753 0.347656 0.531250 255 255 255 255
-0.088030 -0.027291 0.550791 -0.985839 -0.063356 0.155156 0.406250 0.523438 128 128 128 255
0.000008 0.029861 0.539866 0.000000 0.991089 0.133030 0.312500 0.523438 255 255 255 255
-0.000000 0.025902 0.557950 0.000000 0.995025 0.099521 0.312500 0.531250 0 255 128 255
0.088047 -0.027291 0.550791 0.985778 -0.063356 0.155461 0.406250 0.523438 128 128 128 255
0.038632 -0.070079 0.543805 0.345714 -0.936674 -0.055635 0.453125 0.523438 128 128 128 255
0.085243 -0.030113 0.568614 0.981048 -0.143803 0.129795 0.406250 0.531250 128 128 128 255
0.037274 -0.071971 0.561795 0.358531 -0.930815 -0.070864 0.453125 0.531250 128 128 128 255
-0.085244 -0.030113 0.568614 -0.981170 -0.143742 0.128849 0.406250 0.531250 128 128 128 255
-0.037275 -0.071971 0.561795 -0.358715 -0.930692 -0.071200 0.453125 0.531250 128 128 128 255
3 0 1 2
3 3 4 5
3 6 7 8
3 9 10 11
3 12 13 14
3 5 15 16
3 17 18 19
3 11 10 14
3 20 21 22
3 23 24 25
3 26 3 5
3 27 28 29
3 30 31 32
3 33 34 35
3 36 37 38
3 39 33 35
3 40 41 42
3 43 44 32
3 45 46 47
3 48 49 50
3 51 39 35
3 52 53 54
3 55 56 57
3 58 59 60
3 61 62 63
3 64 52 65
3 66 67 68
3 69 70 71
3 72 73 74
3 75 76 77
3 78 79 80
3 81 82 83
3 0 84 1
3 85 86 87
3 88 89 90
3 19 91 92
3 38 93 36
3 28 94 95
3 96 97 98
3 81 99 75
3 100 101 81
3 27 102 103
3 87 104 85
3 105 106 107
3 108 47 109
3 110 111 112
3 63 24 113
3 114 115 116
3 117 118 119
3 9 120 121
3 59 122 123
3 61 22 21
3 124 125 126
3 127 128 129
3 130 131 132
3 133 134 135
3 136 137 138
3 122 8 123
3 139 140 141
3 142 143 42
3 144 135 145
3 115 144 116
3 19 115 17
3 52 146 65
3 147 148 149
3 150 151 152
3 153 154 155
3 110 156 157
3 158 159 110
3 160 73 161
3 106 162 107
3 163 164 165
3 166 167 168
3 44 169 170
3 171 172 173
3 131 174 9
3 82 175 176
3 177 143 178
3 150 179 180
3 76 181 61
3 114 68 182
3 43 31 183
3 152 184 150
3 185 186 187
3 188 189 27
3 190 41 40
3 191 192 193
3 194 14 13
3 195 104 64
3 124 196 197
3 198 158 199
3 200 2 1
3 40 195 190
3 201 202 57
3 203 204 205
3 168 109 206
3 207 208 209
3 136 210 211
3 212 213 214
3 215 66 216
3 114 217 218
3 167 108 168
3 219 133 144
3 49 149 220
3 221 222 223
3 220 148 224
3 165 117 225
3 226 227 228
3 171 226 229
3 124 230 231
3 66 218 216
3 83 176 134
3 232 233 234
3 235 236 237
3 5 4 15
3 211 238 137
3 79 196 80
3 13 239 240
3 116 145 241
3 23 180 179
3 106 9 11
3 91 101 92
3 188 29 242
3 243 90 244
3 16 12 14
3 245 246 247
3 248 249 250
3 251 252 253
3 254 255 256
3 77 113 257
3 258 259 260
3 261 262 263
3 264 265 266
3 55 202 267
3 268 269 270
3 271 220 272
3 50 49 271
3 273 274 235
3 171 275 276
3 70 247 277
3 278 279 157
3 280 4 281
3 282 283 284
3 267 192 55
3 285 286 256
3 287 288 289
3 141 290 291
3 292 286 293
3 20 22 294
3 23 25 295
3 296 287 280
3 273 86 31
3 29 95 297
3 298 299 300
3 301 302 303
3 304 299 298
3 189 305 205
3 306 297 307
3 308 309 310
3 293 311 292
3 312 299 304
3 158 112 167
3 313 213 314
3 315 316 317
3 119 318 294
3 223 319 186
3 238 313 137
3 320 52 104
3 73 147 161
3 151 117 164
3 208 321 322
3 152 172 276
3 278 157 156
3 323 189 324
3 325 326 327
3 237 328 329
3 302 330 331
3 28 332 166
3 200 310 333
3 213 238 334
3 172 164 335
3 332 158 167
3 300 331 330
3 103 199 332
3 336 337 338
3 329 339 308
3 54 200 1
3 308 53 329
3 213 140 314
3 76 63 77
3 337 174 340
3 233 129 341
3 119 22 342
3 343 344 345
3 311 120 174
3 346 128 336
3 253 347 348
3 349 67 215
3 279 111 157
3 350 115 182
3 351 188 252
3 229 352 171
3 229 140 353
3 140 228 141
3 112 45 108
3 148 72 354
3 75 257 82
3 355 131 106
3 107 356 105
3 54 84 146
3 118 295 318
3 357 73 201
3 317 358 315
3 359 99 101
3 235 360 320
3 306 29 297
3 133 81 83
3 233 107 162
3 209 361 343
3 358 283 282
3 257 362 175
3 117 342 225
3 111 363 45
3 307 364 306
3 365 197 79
3 270 185 187
3 143 40 42
3 205 324 189
3 288 285 289
3 264 72 366
3 323 199 102
3 344 367 368
3 272 224 369
3 347 188 242
3 370 34 93
3 56 201 57
3 371 372 373
3 228 374 290
3 375 79 78
3 349 216 376
3 114 241 217
3 90 377 244
3 213 334 214
3 329 360 237
3 375 67 378
3 250 354 264
3 379 262 269
3 249 148 354
3 380 76 99
3 92 219 19
3 137 207 138
3 344 258 345
3 238 210 334
3 276 381 152
3 382 383 13
3 166 206 94
3 287 289 4
3 384 327 385
3 208 367 361
3 256 239 285
3 353 386 229
3 113 23 362
3 128 311 337
3 374 335 163
3 143 31 86
3 327 387 385
3 388 264 266
3 193 245 69
3 261 223 185
3 389 178 142
3 390 147 149
3 180 391 150
3 392 125 393
3 261 96 221
3 394 390 395
3 396 224 249
3 269 261 185
3 250 388 397
3 273 320 87
3 177 398 399
3 173 335 227
3 3 281 4
3 114 218 66
3 126 400 124
3 48 395 390
3 280 287 4
3 344 368 401
3 397 248 250
3 402 17 350
3 403 141 291
3 9 121 10
3 17 404 18
3 27 103 28
3 30 273 31
3 45 363 46
3 48 390 49
3 52 360 53
3 55 191 56
3 61 21 62
3 64 104 52
3 69 245 70
3 72 405 73
3 75 99 76
3 81 75 82
3 85 40 86
3 88 406 89
3 19 18 91
3 38 370 93
3 28 166 94
3 96 261 97
3 81 101 99
3 100 92 101
3 27 189 102
3 87 320 104
3 108 45 47
3 110 157 111
3 63 62 24
3 114 182 115
3 117 391 118
3 9 174 120
3 59 58 122
3 61 181 22
3 124 231 125
3 127 292 128
3 133 83 134
3 136 211 137
3 122 6 8
3 139 314 140
3 142 178 143
3 144 133 135
3 115 219 144
3 19 219 115
3 52 54 146
3 147 405 148
3 150 391 151
3 110 159 156
3 158 407 159
3 160 201 73
3 106 11 162
3 163 335 164
3 166 332 167
3 44 43 169
3 171 276 172
3 131 340 174
3 82 257 175
3 177 183 143
3 150 184 179
3 76 408 181
3 114 66 68
3 43 32 31
3 152 381 184
3 185 223 186
3 188 305 189
3 190 372 41
3 191 55 192
3 194 383 162
3 195 85 104
3 124 400 196
3 198 407 158
3 200 333 2
3 40 85 195
3 201 160 202
3 203 409 204
3 168 108 109
3 207 321 208
3 136 410 210
3 212 353 213
3 215 67 66
3 167 112 108
3 219 100 133
3 49 390 149
3 221 411 222
3 220 149 148
3 165 164 117
3 226 173 227
3 171 173 226
3 124 197 230
3 83 82 176
3 255 127 232
3 235 274 236
3 211 210 238
3 79 197 196
3 13 12 239
3 116 144 145
3 23 295 180
3 106 131 9
3 91 359 101
3 188 27 29
3 243 412 90
3 16 15 12
3 245 192 246
3 248 396 249
3 251 351 252
3 286 254 256
3 77 63 113
3 258 401 259
3 264 366 265
3 55 57 202
3 268 379 269
3 271 49 220
3 273 30 274
3 171 352 275
3 70 245 247
3 267 246 192
3 141 228 290
3 273 87 86
3 29 28 95
3 308 339 309
3 293 413 311
3 158 110 112
3 313 238 213
3 119 118 318
3 223 222 319
3 320 360 52
3 73 405 147
3 151 391 117
3 152 151 172
3 323 102 189
3 325 414 326
3 237 236 328
3 302 301 330
3 28 103 332
3 200 308 310
3 172 151 164
3 332 199 158
3 300 299 331
3 103 102 199
3 329 328 339
3 54 53 200
3 308 200 53
3 213 353 140
3 76 61 63
3 337 311 174
3 233 127 129
3 119 294 22
3 343 361 344
3 311 413 120
3 253 252 347
3 349 378 67
3 279 415 111
3 350 17 115
3 351 305 188
3 229 386 352
3 229 226 140
3 140 226 228
3 112 111 45
3 148 405 72
3 75 77 257
3 54 1 84
3 118 180 295
3 357 74 73
3 317 416 358
3 359 380 99
3 235 237 360
3 306 242 29
3 133 100 81
3 233 341 107
3 209 208 361
3 358 416 283
3 257 113 362
3 117 119 342
3 111 415 363
3 307 417 364
3 365 230 197
3 270 269 185
3 143 86 40
3 205 204 324
3 288 286 285
3 264 354 72
3 323 198 199
3 344 361 367
3 272 220 224
3 347 252 188
3 370 35 34
3 56 357 201
3 371 41 372
3 228 227 374
3 375 365 79
3 349 215 216
3 114 116 241
3 90 89 377
3 329 53 360
3 375 78 67
3 250 249 354
3 379 418 262
3 249 224 148
3 380 408 76
3 92 100 219
3 137 321 207
3 344 401 258
3 276 275 381
3 233 162 382
3 166 168 206
3 384 325 327
3 208 322 367
3 256 240 239
3 353 212 386
3 113 24 23
3 128 292 311
3 374 227 335
3 143 183 31
3 327 419 387
3 193 192 245
3 261 221 223
3 389 398 178
3 390 420 147
3 180 118 391
3 392 126 125
3 394 420 390
3 396 369 224
3 269 262 261
3 250 264 388
3 273 235 320
3 177 178 398
3 173 172 335
3 402 404 17
3 403 139 141
3 194 11 14
3 162 11 194
3 254 292 127
3 286 292 254
3 234 240 232
3 232 127 233
3 254 127 255
3 13 240 382
3 382 162 383
3 194 13 383
3 232 240 256
3 256 255 232
3 382 240 234
3 234 233 382
3 421 422 423
3 421 424 422
3 425 426 427
3 356 428 429
3 430 429 431
3 432 433 434
3 435 436 437
3 437 438 439
3 130 438 338
3 440 441 433
3 430 434 442
3 130 337 340
3 129 356 341
3 442 356 429
3 434 132 355
3 428 336 436
3 436 338 438
3 433 130 132
3 442 355 105
3 427 295 25
3 443 153 444
3 295 445 318
3 446 294 154
3 429 435 431
3 441 439 438
3 105 355 106
3 130 340 131
3 336 128 337
3 346 129 128
3 355 132 131
3 107 341 356
3 24 427 25
3 356 346 428
3 430 442 429
3 432 440 433
3 435 428 436
3 437 436 438
3 130 441 438
3 440 447 441
3 430 432 434
3 130 338 337
3 129 346 356
3 442 105 356
3 434 433 132
3 428 346 336
3 436 336 338
3 433 441 130
3 442 434 355
3 21 446 443
3 24 448 449
3 153 446 154
3 429 428 435
3 441 447 439
3 427 426 295
3 449 450 451
3 426 452 445
3 449 425 427
3 295 426 445
3 446 20 294
3 24 449 427
3 21 20 446
3 24 62 448
3 445 155 154
3 448 444 450
3 425 453 426
3 443 446 153
3 449 448 450
3 426 453 452
3 449 451 425
3 445 452 155
3 448 443 444
3 445 294 318
3 445 154 294
3 21 448 62
3 21 443 448
