{
  "accessors": [
    {
      "bufferView": 3,
      "componentType": 5126,
      "count": 409,
      "max": [
        32.16291809082031,
        137.5645751953125,
        14.673689842224121
      ],
      "min": [
        -32.16291809082031,
        -0.6158241629600525,
        -9.404441833496094
      ],
      "type": "VEC3"
    },
    {
      "bufferView": 3,
      "byteOffset": 4908,
      "componentType": 5126,
      "count": 409,
      "max": [
        0.9987708926200867,
        1.0,
        0.9998605251312256
      ],
      "min": [
        -0.9987708926200867,
        -0.9998346567153931,
        -0.9994763135910034
      ],
      "type": "VEC3"
    },
    {
      "bufferView": 2,
      "componentType": 5126,
      "count": 409,
      "max": [
        0.755208432674408,
        0.8848940134048462
      ],
      "min": [
        0.0,
        0.0
      ],
      "type": "VEC2"
    },
    {
      "bufferView": 1,
      "componentType": 5125,
      "count": 1590,
      "type": "SCALAR"
    },
    {
      "bufferView": 5,
      "componentType": 5126,
      "count": 32,
      "max": [
        1.0,
        0.008903506211936474,
        0.007310725748538971,
        0.0,
        0.004045566543936729,
        1.0,
        0.009999998845160007,
        0.0,
        0.009999985806643963,
        0.009999999776482582,
        1.0,
        0.0,
        0.5650164484977722,
        0.9410581588745117,
        0.42797380685806274,
        1.0
      ],
      "min": [
        -0.009999999776482582,
        -0.008903506211936474,
        -0.007310725748538971,
        0.0,
        -0.004045566543936729,
        -0.00991028267890215,
        -0.00847997609525919,
        0.0,
        -0.009999985806643963,
        -0.005070947110652924,
        -0.009965172968804836,
        0.0,
        -0.5650164484977722,
        -1.2254194021224976,
        -1.1042011976242065,
        1.0
      ],
      "type": "MAT4"
    },
    {
      "bufferView": 0,
      "componentType": 5123,
      "count": 409,
      "type": "VEC4"
    },
    {
      "bufferView": 4,
      "componentType": 5126,
      "count": 409,
      "max": [
        1.0,
        0.49038392305374146,
        0.3235120177268982,
        0.18162186443805695
      ],
      "min": [
        0.3103938400745392,
        0.0,
        0.0,
        0.0
      ],
      "type": "VEC4"
    }
  ],
  "asset": {
    "extras": {
      "author": "assblasterplastered (https://sketchfab.com/assblasterplastered)",
      "license": "CC-BY-4.0 (http://creativecommons.org/licenses/by/4.0/)",
      "source": "https://sketchfab.com/3d-models/low-poly-base-mesh-530-tri-138ca18c246a4b13b3e108bd88df95a2",
      "title": "Low Poly Base Mesh-530 Tri"
    },
    "generator": "Sketchfab-10.63.0",
    "version": "2.0"
  },
  "bufferViews": [
    {
      "buffer": 0,
      "byteLength": 3272,
      "byteStride": 8,
      "name": "shortBufferViews",
      "target": 34962
    },
    {
      "buffer": 0,
      "byteLength": 6360,
      "byteOffset": 3272,
      "name": "floatBufferViews",
      "target": 34963
    },
    {
      "buffer": 0,
      "byteLength": 3272,
      "byteOffset": 9632,
      "byteStride": 8,
      "name": "floatBufferViews",
      "target": 34962
    },
    {
      "buffer": 0,
      "byteLength": 9816,
      "byteOffset": 12904,
      "byteStride": 12,
      "name": "floatBufferViews",
      "target": 34962
    },
    {
      "buffer": 0,
      "byteLength": 6544,
      "byteOffset": 22720,
      "byteStride": 16,
      "name": "floatBufferViews",
      "target": 34962
    },
    {
      "buffer": 0,
      "byteLength": 2048,
      "byteOffset": 29264,
      "byteStride": 64,
      "name": "floatBufferViews"
    }
  ],
  "buffers": [
    {
      "byteLength": 31312,
      "uri": "scene.bin"
    }
  ],
  "materials": [
    {
      "doubleSided": true,
      "name": "Material.001",
      "pbrMetallicRoughness": {
        "baseColorFactor": [
          0.8,
          0.8,
          0.8,
          1.0
        ],
        "metallicFactor": 0.0,
        "roughnessFactor": 0.8040408205773457
      }
    }
  ],
  "meshes": [
    {
      "name": "Cube.001_Material.001_0",
      "primitives": [
        {
          "attributes": {
            "JOINTS_0": 5,
            "NORMAL": 1,
            "POSITION": 0,
            "TEXCOORD_0": 2,
            "WEIGHTS_0": 6
          },
          "indices": 3,
          "material": 0,
          "mode": 4
        }
      ]
    }
  ],
  "nodes": [
    {
      "children": [
        1
      ],
      "matrix": [
        1.0,
        0.0,
        0.0,
        0.0,
        0.0,
        2.220446049250313e-16,
        -1.0,
        0.0,
        0.0,
        1.0,
        2.220446049250313e-16,
        0.0,
        0.0,
        0.0,
        0.0,
        1.0
      ],
      "name": "Sketchfab_model"
    },
    {
      "children": [
        2
      ],
      "matrix": [
        1.0,
        0.0,
        0.0,
        0.0,
        0.0,
        0.0,
        1.0,
        0.0,
        0.0,
        -1.0,
        0.0,
        0.0,
        0.0,
        0.0,
        0.0,
        1.0
      ],
      "name": "de8d3af3f2ef40fcae709f7a4aa579d3.fbx"
    },
    {
      "children": [
        3
      ],
      "name": "RootNode"
    },
    {
      "children": [
        4
      ],
      "matrix": [
        100.0,
        0.0,
        0.0,
        0.0,
        0.0,
        -1.629206793918314e-05,
        -99.99999999999868,
        0.0,
        0.0,
        99.99999999999868,
        -1.629206793918314e-05,
        0.0,
        0.0,
        0.0,
        0.0,
        1.0
      ],
      "name": "low poly base mesh"
    },
    {
      "children": [
        5,
        38,
        37
      ],
      "name": "Object_4"
    },
    {
      "children": [
        6
      ],
      "name": "_rootJoint"
    },
    {
      "children": [
        7,
        25,
        26,
        27,
        32
      ],
      "name": "spine_01",
      "rotation": [
        0.7904554605484009,
        0.0,
        0.0,
        0.6125195026397705
      ],
      "translation": [
        0.0,
        0.03797413781285286,
        0.6947460174560547
      ]
    },
    {
      "children": [
        8
      ],
      "name": "spine.001_02",
      "rotation": [
        -0.06447649747133255,
        -0.0,
        0.0,
        0.9979192018508911
      ],
      "scale": [
        0.9999998807907104,
        1.0,
        0.9999999403953552
      ],
      "translation": [
        0.0,
        0.1047171950340271,
        0.0
      ]
    },
    {
      "children": [
        9
      ],
      "name": "spine.002_03",
      "rotation": [
        -0.07746416330337524,
        -0.0,
        0.0,
        0.9969951510429382
      ],
      "scale": [
        1.0000001192092896,
        0.9999999403953552,
        0.9999998807907104
      ],
      "translation": [
        0.0,
        0.09399730712175369,
        -5.2677933126688e-09
      ]
    },
    {
      "children": [
        10,
        13,
        17,
        21,
        23
      ],
      "name": "spine.003_04",
      "rotation": [
        0.0016271548811346292,
        0.0,
        0.0,
        0.9999986886978149
      ],
      "scale": [
        1.0,
        1.0000001192092896,
        1.0
      ],
      "translation": [
        0.0,
        0.11893542855978012,
        -4.190951585769653e-09
      ]
    },
    {
      "children": [
        11
      ],
      "name": "spine.004_05",
      "rotation": [
        0.20173776149749756,
        0.0,
        0.0,
        0.9794396758079529
      ],
      "scale": [
        0.9999998807907104,
        0.9999997019767761,
        0.9999996423721313
      ],
      "translation": [
        0.0,
        0.1324814409017563,
        -3.725290298461914e-09
      ]
    },
    {
      "children": [
        12
      ],
      "name": "spine.005_06",
      "rotation": [
        -0.09485770016908646,
        -0.0,
        0.0,
        0.9954908490180969
      ],
      "scale": [
        1.0000001192092896,
        1.0000001192092896,
        0.9999999403953552
      ],
      "translation": [
        0.0,
        0.0455162450671196,
        -9.313225191043273e-10
      ]
    },
    {
      "name": "spine.006_07",
      "rotation": [
        -0.09371168911457062,
        -0.0,
        0.0,
        0.9955993890762329
      ],
      "translation": [
        0.0,
        0.04313449561595917,
        5.587935447692871e-09
      ]
    },
    {
      "children": [
        14
      ],
      "name": "shoulder.L_08",
      "rotation": [
        -0.6051546335220337,
        -0.34586241841316223,
        -0.35613447427749634,
        0.6223626732826233
      ],
      "scale": [
        0.9999997615814209,
        0.9999998211860657,
        0.9999997615814209
      ],
      "translation": [
        0.012589219957590103,
        0.09439919143915176,
        0.05383160710334778
      ]
    },
    {
      "children": [
        15
      ],
      "name": "upper_arm.L_09",
      "rotation": [
        -0.2757234275341034,
        0.6674872636795044,
        -0.4773256182670593,
        0.5005972385406494
      ],
      "scale": [
        1.000000238418579,
        1.0000001192092896,
        0.9999999403953552
      ],
      "translation": [
        0.005360097624361515,
        0.1381312757730484,
        -0.014023654162883759
      ]
    },
    {
      "children": [
        16
      ],
      "name": "forearm.L_010",
      "rotation": [
        0.21165135502815247,
        0.10571392625570297,
        -0.013405839912593365,
        0.9715186953544617
      ],
      "scale": [
        1.000000238418579,
        1.0000001192092896,
        1.000000238418579
      ],
      "translation": [
        -2.8405338525772095e-08,
        0.2182053029537201,
        7.450580596923828e-09
      ]
    },
    {
      "name": "hand.L_011",
      "rotation": [
        -0.11464888602495193,
        -0.02353086695075035,
        -0.06664092093706131,
        0.9908889532089233
      ],
      "scale": [
        0.9999997019767761,
        0.9999998807907104,
        0.9999998807907104
      ],
      "translation": [
        -9.592622518539429e-08,
        0.19983048737049103,
        3.166496753692627e-08
      ]
    },
    {
      "children": [
        18
      ],
      "name": "shoulder.R_012",
      "rotation": [
        -0.6051546335220337,
        0.34586241841316223,
        0.35613447427749634,
        0.6223626732826233
      ],
      "scale": [
        0.9999997615814209,
        0.9999998211860657,
        0.9999997615814209
      ],
      "translation": [
        -0.012589219957590103,
        0.09439919143915176,
        0.05383160710334778
      ]
    },
    {
      "children": [
        19
      ],
      "name": "upper_arm.R_013",
      "rotation": [
        -0.2757234275341034,
        -0.6674872636795044,
        0.4773256182670593,
        0.5005972385406494
      ],
      "scale": [
        1.000000238418579,
        1.0000001192092896,
        0.9999999403953552
      ],
      "translation": [
        -0.005360097624361515,
        0.1381312757730484,
        -0.014023654162883759
      ]
    },
    {
      "children": [
        20
      ],
      "name": "forearm.R_014",
      "rotation": [
        0.21165135502815247,
        -0.10571392625570297,
        0.013405839912593365,
        0.9715186953544617
      ],
      "scale": [
        1.000000238418579,
        1.0000001192092896,
        1.000000238418579
      ],
      "translation": [
        2.8405338525772095e-08,
        0.2182053029537201,
        7.450580596923828e-09
      ]
    },
    {
      "name": "hand.R_015",
      "rotation": [
        -0.11464888602495193,
        0.02353086695075035,
        0.06664092093706131,
        0.9908889532089233
      ],
      "scale": [
        0.9999997019767761,
        0.9999998807907104,
        0.9999998807907104
      ],
      "translation": [
        9.592622518539429e-08,
        0.19983048737049103,
        3.166496753692627e-08
      ]
    },
    {
      "children": [
        22
      ],
      "name": "breast.L_016",
      "rotation": [
        5.416350745690579e-08,
        0.6969361901283264,
        0.7171331644058228,
        5.2639304470858406e-08
      ],
      "scale": [
        0.9999998807907104,
        0.9999998211860657,
        0.9999998807907104
      ],
      "translation": [
        0.08145156502723694,
        -0.003357711946591735,
        -0.029413949698209763
      ]
    },
    {
      "name": "breast.L_end_017",
      "rotation": [
        1.6763802790364934e-08,
        3.178652363544643e-08,
        -2.0115236787441454e-15,
        1.0
      ],
      "translation": [
        -7.196129248043803e-10,
        0.09576064348220825,
        3.1308054815326614e-08
      ]
    },
    {
      "children": [
        24
      ],
      "name": "breast.R_018",
      "rotation": [
        5.416350745690579e-08,
        0.6969361901283264,
        0.7171331644058228,
        5.2639304470858406e-08
      ],
      "scale": [
        0.9999998807907104,
        0.9999998211860657,
        0.9999998807907104
      ],
      "translation": [
        -0.08145156502723694,
        -0.003357711946591735,
        -0.029413949698209763
      ]
    },
    {
      "name": "breast.R_end_019",
      "rotation": [
        1.6763802790364934e-08,
        3.178652363544643e-08,
        -2.0115236787441454e-15,
        1.0
      ],
      "translation": [
        -7.196129248043803e-10,
        0.09576064348220825,
        -3.6474698816846285e-09
      ]
    },
    {
      "name": "pelvis.L_020",
      "rotation": [
        -0.15245510637760162,
        -0.7933308482170105,
        -0.28550392389297485,
        0.5156269073486328
      ],
      "scale": [
        1.000000238418579,
        1.0,
        0.9999999403953552
      ],
      "translation": [
        9.43689570931383e-16,
        2.7939677238464355e-08,
        1.1175870895385742e-08
      ]
    },
    {
      "name": "pelvis.R_021",
      "rotation": [
        -0.15245510637760162,
        0.7933308482170105,
        0.28550392389297485,
        0.5156269073486328
      ],
      "scale": [
        1.000000238418579,
        1.0,
        0.9999999403953552
      ],
      "translation": [
        -9.43689570931383e-16,
        2.7939677238464355e-08,
        1.1175870895385742e-08
      ]
    },
    {
      "children": [
        28
      ],
      "name": "thigh.L_022",
      "rotation": [
        0.9835478067398071,
        0.06864147633314133,
        -0.01138356328010559,
        0.16671086847782135
      ],
      "scale": [
        1.0000001192092896,
        0.9999999403953552,
        1.000001311302185
      ],
      "translation": [
        0.06741766631603241,
        0.04871857911348343,
        0.017846614122390747
      ]
    },
    {
      "children": [
        29
      ],
      "name": "shin.L_023",
      "rotation": [
        0.08595873415470123,
        0.01085138414055109,
        0.019847696647047997,
        0.9960418939590454
      ],
      "scale": [
        1.000000238418579,
        1.000000238418579,
        1.0000001192092896
      ],
      "translation": [
        3.387685865163803e-08,
        0.3413466513156891,
        -1.7556885723024607e-08
      ]
    },
    {
      "children": [
        30,
        31
      ],
      "name": "foot.L_024",
      "rotation": [
        -0.5229539275169373,
        -0.026729976758360863,
        0.04199903458356857,
        0.8509058952331543
      ],
      "scale": [
        0.9999999403953552,
        1.0,
        1.0
      ],
      "translation": [
        4.935282049700618e-08,
        0.3450876772403717,
        -3.92901711165905e-09
      ]
    },
    {
      "name": "toe.L_025",
      "rotation": [
        1.1229541740931381e-07,
        0.9612486362457275,
        -0.2756829261779785,
        4.183806652235944e-07
      ],
      "translation": [
        1.6196516128275107e-08,
        0.08891250938177109,
        1.8531395085119584e-08
      ]
    },
    {
      "name": "heel.02.L_026",
      "rotation": [
        0.6797053217887878,
        0.6797059774398804,
        -0.19493629038333893,
        0.19493673741817474
      ],
      "scale": [
        1.0000001192092896,
        1.0,
        0.9999999403953552
      ],
      "translation": [
        -0.0261415783315897,
        0.013738369569182396,
        0.060531746596097946
      ]
    },
    {
      "children": [
        33
      ],
      "name": "thigh.R_027",
      "rotation": [
        0.9835478067398071,
        -0.06864147633314133,
        0.01138356328010559,
        0.16671086847782135
      ],
      "scale": [
        1.0000001192092896,
        0.9999999403953552,
        1.000001311302185
      ],
      "translation": [
        -0.06741766631603241,
        0.04871857911348343,
        0.017846614122390747
      ]
    },
    {
      "children": [
        34
      ],
      "name": "shin.R_028",
      "rotation": [
        0.08595873415470123,
        -0.01085138414055109,
        -0.019847696647047997,
        0.9960418939590454
      ],
      "scale": [
        1.000000238418579,
        1.000000238418579,
        1.0000001192092896
      ],
      "translation": [
        -3.387685865163803e-08,
        0.3413466513156891,
        -1.7556885723024607e-08
      ]
    },
    {
      "children": [
        35,
        36
      ],
      "name": "foot.R_00",
      "rotation": [
        -0.5229539275169373,
        0.026729976758360863,
        -0.04199903458356857,
        0.8509058952331543
      ],
      "scale": [
        0.9999999403953552,
        1.0,
        1.0
      ],
      "translation": [
        -4.935282049700618e-08,
        0.3450876772403717,
        -3.92901711165905e-09
      ]
    },
    {
      "name": "toe.R_029",
      "rotation": [
        -1.1229541740931381e-07,
        0.9612486362457275,
        -0.2756829261779785,
        -4.183806652235944e-07
      ],
      "translation": [
        -1.6196516128275107e-08,
        0.08891250938177109,
        1.8531395085119584e-08
      ]
    },
    {
      "name": "heel.02.R_030",
      "rotation": [
        -0.6797053217887878,
        0.6797059774398804,
        -0.19493629038333893,
        -0.19493673741817474
      ],
      "scale": [
        1.0000001192092896,
        1.0,
        0.9999999403953552
      ],
      "translation": [
        0.0261415783315897,
        0.013738369569182396,
        0.060531746596097946
      ]
    },
    {
      "matrix": [
        100.0,
        0.0,
        0.0,
        0.0,
        0.0,
        -8.439905006580058e-07,
        -99.99999294511747,
        0.0,
        0.0,
        99.99999298975632,
        -8.439905010347535e-07,
        0.0,
        0.0,
        3.2916360623858054e-06,
        4.0869213080441114e-07,
        1.0
      ],
      "name": "Object_37"
    },
    {
      "mesh": 0,
      "name": "Object_38",
      "skin": 0
    }
  ],
  "scene": 0,
  "scenes": [
    {
      "name": "Sketchfab_Scene",
      "nodes": [
        0
      ]
    }
  ],
  "skins": [
    {
      "inverseBindMatrices": 4,
      "joints": [
        5,
        6,
        7,
        8,
        9,
        10,
        11,
        12,
        13,
        14,
        15,
        16,
        17,
        18,
        19,
        20,
        21,
        22,
        23,
        24,
        25,
        26,
        27,
        28,
        29,
        30,
        31,
        32,
        33,
        34,
        35,
        36
      ],
      "skeleton": 5
    }
  ]
}
